<svg width="127" height="46" viewBox="0 0 127 46" fill="none" xmlns="http://www.w3.org/2000/svg">
<path d="M126.361 20.9504L126.364 22.6409C126.08 22.643 125.776 22.6543 125.475 22.6271L124.955 22.5802C124.794 22.5657 124.649 22.5646 124.487 22.5664C124.11 22.5706 123.853 22.4784 123.394 22.4688L122.079 22.4416L121.605 22.4076L120.525 22.3514C120.455 22.3477 120.31 22.3158 120.247 22.3222L119.506 22.4024C119.228 22.4324 118.959 22.3512 118.576 22.34C118.427 22.3356 117.521 22.4907 117.183 22.5021L116.288 22.5326L115.861 22.5634C115.573 22.5843 115.301 22.5854 115.015 22.6101L114.497 22.6547L113.931 22.6998L113.198 22.7419C113.06 22.7499 112.675 22.7008 112.487 22.7339C112.187 22.7866 111.922 22.8118 111.62 22.8226C111.444 22.8288 111.23 22.874 111.062 22.8542C110.79 22.8226 110.567 22.814 110.304 22.855L109.882 22.9214L109.268 23.0095L108.785 23.0746L108.392 23.1203C108.271 23.1345 108.159 23.1593 108.029 23.1851C107.722 23.247 107.392 23.189 107.082 23.1984C106.876 23.2047 106.611 23.2255 106.433 23.2399C106.319 23.4437 106.288 23.3086 105.779 23.4026C105.537 23.4475 105.318 23.4653 105.075 23.4745L104.753 23.4868L104.281 23.5476L103.524 23.5696L103.231 23.578C103.062 23.5832 102.851 23.5933 102.686 23.6259L102.177 23.7267C101.37 23.886 101.647 23.7332 100.886 23.7995L100.653 23.8987L99.9922 23.9493L99.3301 24.0139C99.163 24.0302 98.9639 24.1019 98.8047 24.1066C98.4553 24.1165 98.4615 24.1526 97.966 24.1538C97.1003 24.1558 97.5531 24.2134 97.076 24.2295L96.6395 24.244C96.5278 24.2476 96.3791 24.3062 96.2699 24.3189C95.9064 24.3617 95.5578 24.3451 95.1839 24.3446C95.0595 24.3444 94.9273 24.3899 94.8021 24.4176C94.5295 24.478 94.2076 24.4046 93.9544 24.4779L93.6541 24.5642C93.6287 24.5465 93.6839 24.5848 93.7324 24.6184L92.9375 24.6655C92.8697 24.6695 92.7243 24.7391 92.6471 24.7398C91.8634 24.7479 92.1622 24.8256 91.9809 24.828L91.3238 24.8367L91.1483 24.8949C91.1163 24.8825 91.0884 24.8715 91.0964 24.8748C91.0151 24.9491 90.9061 25.0283 90.8062 25.03L89.6594 25.0475L89.4354 25.126L88.8034 25.1443L88.5864 25.2247L87.563 25.242C87.5357 25.2421 87.0044 25.4224 86.9964 25.4224L85.6437 25.4438L85.4221 25.5204C85.6555 25.4399 83.6618 25.6284 83.6947 25.6284L82.2357 25.6462L81.9646 25.7248L81.3339 25.7214C81.2614 25.7211 81.1414 25.7743 81.0689 25.7861L80.6127 25.8603C80.454 25.8862 80.3355 25.9504 80.192 25.8367L79.9751 25.9099C79.6129 25.9329 79.2224 25.9011 78.8674 25.9524C78.6762 25.9803 78.52 26.0216 78.3179 26.024C78.2228 26.0251 78.0953 26.0947 77.9997 26.0993L77.0607 26.1458L76.6775 26.2304L76.3927 26.2941L75.6717 26.3463C75.464 26.3612 75.3027 26.4266 75.0667 26.4132C74.9885 26.4066 74.963 26.4047 75.0726 26.3352C74.5634 26.3109 74.5772 26.3859 73.9989 26.4089L73.2388 26.4391L72.8679 26.5208C72.6386 26.5714 72.5186 26.3999 71.7001 26.6424C71.5405 26.6894 71.3913 26.7292 71.2161 26.7118C71.0536 26.6954 70.8884 26.7747 70.7509 26.7856C70.2348 26.8263 69.7586 26.8129 69.234 26.8238L69.3377 26.8866L69.2021 26.896C69.0561 26.906 68.9158 26.9107 68.7674 26.9072C68.5277 26.902 68.2952 26.9776 68.0654 26.9954C67.6222 27.0297 67.1922 27.0052 66.7433 27.0077C66.5978 27.008 66.4425 27.0613 66.3144 27.0804L65.6002 27.1869C64.6468 27.3292 65.0359 26.9476 64.3629 27.1826C64.1135 27.2698 63.9775 27.1349 63.3434 27.287C63.1923 27.3234 62.9578 27.3259 62.8155 27.2844C62.412 27.1665 62.7018 27.2192 62.32 27.2716L61.9367 27.324C61.8727 27.3328 61.7245 27.4019 61.6609 27.4031L59.6809 27.4269L59.3114 27.5197C59.7096 27.4196 57.9764 27.6143 58.2707 27.6126L57.7917 27.6152C57.7404 27.6153 57.6176 27.6868 57.5649 27.7139L57.5343 27.6851C57.5365 27.6499 57.5435 27.6162 57.5313 27.6225C57.5134 27.6317 57.4546 27.6689 57.4353 27.6733L57.1835 27.7301C57.0498 27.7603 56.9577 27.8601 56.8652 27.7906L56.7997 27.7416C56.7402 27.697 56.773 27.8081 56.5657 27.8096C56.1103 27.8125 55.6016 27.7959 55.1326 27.8374C54.6928 27.8765 54.5196 28.1276 54.0637 27.9367C53.9864 27.9041 53.7919 27.9205 53.7272 27.873C53.6451 27.8125 53.522 27.7344 53.4677 27.6811L53.167 27.3858C53.0854 27.3056 53.0392 27.0974 53.0059 26.9733C52.8577 26.4198 53.0267 26.7673 52.8797 26.1661L52.7741 25.7332L52.7308 25.3281C52.7534 25.5413 52.5692 24.2958 52.5833 24.4825L52.541 23.9239C52.5196 23.641 52.3459 23.447 52.2508 23.0646L52.1552 22.6794C52.1367 22.6043 52.0907 22.4812 52.0585 22.4009L51.7397 21.6139C51.697 21.5086 51.6218 21.3765 51.566 21.2683C51.2618 20.679 51.4204 20.8178 51.1987 20.3005C51.0052 20.107 50.8931 19.9311 50.7795 19.6802L50.745 19.6037C50.6905 19.4836 50.6859 19.5428 50.6594 19.4952L50.537 19.2765L49.7386 18.4487C49.7329 18.443 49.7073 18.3593 49.703 18.3506L49.6732 18.2925C49.6685 18.2834 49.6421 18.2603 49.627 18.245L49.5807 18.1974L49.5335 18.1494L49.4863 18.1014L49.4395 18.0543L49.3933 18.0078L49.3461 17.9602L49.297 17.9103L48.2602 16.8569L48.1782 16.8412C48.1415 16.8341 48.0952 16.7861 48.0673 16.7582L48.0248 16.7155C47.9701 16.6608 47.9776 16.668 47.9459 16.6031L47.9114 16.5334L47.8792 16.467C47.8546 16.4161 47.807 16.4051 47.7726 16.3888L47.7066 16.3572L47.6486 16.328C47.641 16.3242 47.6028 16.2887 47.5952 16.2824L47.5711 16.2435C47.621 16.2054 47.6675 16.1701 47.604 16.2184C47.4644 16.1417 47.3499 16.0799 47.2719 15.9863L46.9238 15.5689C46.8653 15.4988 46.8233 15.2958 46.7549 15.2233C46.635 15.0965 46.4618 14.9699 46.3833 14.8392L46.0358 14.2591C45.9365 14.0933 45.8968 13.8442 45.7881 13.6957C45.5973 13.4344 45.5169 13.1266 45.4146 12.8506C45.3795 12.7559 45.2812 12.6136 45.2508 12.5098L45.1634 12.2111L45.0633 11.8697L44.9555 11.5153C44.9176 11.3902 44.9026 11.2435 44.9037 11.0866C44.9046 10.9018 44.8519 10.7229 44.8346 10.5488C44.7883 10.0816 44.7834 9.59028 44.8313 9.12338C44.8511 8.93084 44.9109 8.7488 44.8982 8.53853C44.8884 8.37927 44.9257 8.23722 44.9626 8.09276L45.0592 7.71285L45.145 7.35365C45.1707 7.24676 45.2552 7.13251 45.2964 7.03905L45.5354 6.49519C45.7097 6.09825 45.5773 6.0899 45.8771 5.61711L45.9788 5.59907C45.9967 5.58844 46.0179 5.57491 46.0052 5.58312L45.9622 5.52837C46.0326 5.43436 46.0758 5.37988 46.1072 5.31725L46.6436 4.25007C46.6843 4.16913 46.8362 4.03837 46.8873 3.96991C46.8792 3.91844 46.8674 3.89007 46.8801 3.88619C47.1371 3.80667 47.1951 3.67372 47.4065 3.4225L47.5615 3.23783C47.6428 3.16016 47.7025 3.09698 47.7658 3.00733L47.8978 2.82175C47.9297 2.77692 47.8516 2.63754 47.843 2.5803C47.7842 2.17813 47.4871 1.82223 47.043 1.84251C46.9544 1.84657 46.8047 1.8397 46.734 1.81821L46.4304 1.7246C46.4186 1.72078 46.3785 1.66794 46.3658 1.66652C46.2263 1.65337 45.9324 1.63288 45.7987 1.67603L45.5055 1.77151C45.2222 1.86361 44.9568 1.97732 44.6896 2.09488L44.2435 2.29082C44.1391 2.33678 43.3288 2.86561 43.1713 2.98773C42.6969 3.35602 42.3219 3.70386 41.9363 4.17684C41.809 4.33306 41.6968 4.46662 41.5417 4.60846C41.483 4.66202 41.3975 4.79119 41.3271 4.8645C41.1828 5.0145 41.0504 5.17217 40.9604 5.35573L40.5516 6.19161C40.4536 6.39203 40.3967 6.61931 40.3299 6.83024L40.1447 7.41585C40.0722 7.64556 40.0004 7.95564 39.9963 8.21359C39.9934 8.38058 39.9481 8.54334 39.932 8.70074C39.8841 9.15658 39.8546 9.63066 39.9329 10.0824L40.0007 10.4739C40.0761 10.9102 40.0443 10.6057 40.2174 11.1279L40.3147 11.4207C40.3512 11.5308 40.3707 11.6367 40.4022 11.7795C40.4393 11.9512 40.6498 12.1557 40.8105 12.5687L40.9995 13.0548L41.1848 13.5308L41.3786 14.0159L41.5723 14.4981L41.6501 14.7212C41.7397 14.9775 41.9159 15.2144 41.9764 15.4813C42.1229 16.1263 42.1259 16.9766 42.0648 17.638C42.0395 17.9123 41.8692 18.1851 41.8157 18.4663C41.8012 18.5409 41.7205 18.6378 41.6843 18.7019L41.2894 19.4112C41.2214 19.5336 41.0451 20.0749 40.9809 20.2103L40.3379 21.5616C40.2849 21.6729 40.0882 22.3529 40.0537 22.5132L39.9615 22.9446L39.866 23.3885C39.8273 23.5681 39.8535 23.903 39.8355 24.0796C39.8305 24.1268 39.7573 24.2554 39.7579 24.2997L39.7708 26.2049C39.771 26.3064 39.8567 26.4958 39.8776 26.5848L39.9713 26.9777C40.1388 27.678 39.9378 27.1222 40.2101 27.9531C40.249 28.0719 40.3137 28.154 40.3879 28.2578C40.5977 28.5509 40.933 29.1434 41.0765 29.4742C41.1158 29.5641 41.0028 29.8098 40.9318 29.8691C40.8317 29.9526 40.6454 30.0421 40.5175 30.1054C40.3076 30.2098 40.1097 30.1684 39.9178 30.0529L39.5914 29.8569C39.5772 29.8482 39.5248 29.793 39.513 29.7796L39.1754 29.4035C39.0724 29.2888 38.9843 29.0633 38.9303 28.906C38.7733 28.4492 38.7355 28.7977 38.5053 27.8599C38.464 27.6906 38.3877 27.4992 38.3538 27.3246L38.2761 26.9225C38.177 26.4078 38.228 25.8793 38.2376 25.3485L38.2596 24.0915L38.3379 23.715C38.3663 23.5777 38.3759 23.4507 38.4039 23.3274L38.5055 22.8782C38.5218 22.8065 38.52 22.6323 38.541 22.5624L38.6396 22.2359L38.726 21.9287C38.8447 21.5078 38.91 21.6415 39.0077 21.3241L39.1119 20.9851L39.2157 20.6576L39.3986 20.1129C39.4098 20.0787 39.4271 20.0123 39.4195 19.9868L39.3327 19.7002C39.2911 19.6709 39.1341 19.5765 39.0611 19.5766L37.7112 19.5764L37.4185 19.6676C37.2684 19.7141 36.9739 19.6686 36.7889 19.7037C36.7018 19.7198 36.571 19.7725 36.5022 19.7727L36.399 19.7729L35.7698 19.7845C35.8529 19.8584 35.8864 19.8882 35.8279 19.8368C35.7022 19.8491 35.6278 19.8633 35.5552 19.8639L34.6952 19.8746L34.4086 19.9523L33.811 19.9825C33.7922 20.0134 33.7862 20.0427 33.7697 20.0433L33.6571 20.0483L33.2738 20.0853C33.2663 20.0863 33.2165 20.1278 33.2099 20.1321C33.113 20.193 32.421 20.1398 32.0792 20.1959L31.582 20.2779C31.5378 20.2852 31.4657 20.308 31.4333 20.3216L31.3604 20.3516C31.3481 20.3564 31.2902 20.3565 31.2657 20.3566L30.7019 20.3618L30.5585 20.4381L30.4034 20.4039C30.3361 20.4247 30.305 20.4306 30.2819 20.4022L29.952 20.4987C29.9096 20.5114 29.8099 20.5539 29.7628 20.5555L29.3135 20.5719C29.3055 20.572 29.2495 20.6144 29.2317 20.6275L29.1713 20.604C29.0568 20.5591 29.0801 20.661 28.578 20.6545C28.3712 20.6516 28.1989 20.6881 28.0021 20.7247C27.7809 20.7661 27.5467 20.7493 27.3005 20.7648C27.2025 20.7713 26.6784 21.0208 26.5522 21.0264L25.4351 21.0776C25.5364 21.0731 24.7214 21.1957 24.6649 21.2113L24.383 21.2899C24.3133 21.3093 24.2375 21.3239 24.1514 21.3419L23.8458 21.4057C23.3836 21.502 23.2796 21.356 22.8217 21.5091C22.8123 21.512 22.7661 21.5184 22.7407 21.5218C22.2025 21.601 22.4579 21.638 22.0298 21.6351C22.0204 21.6352 21.9761 21.6569 21.9667 21.6617L21.9046 21.6937L21.788 21.755C21.7408 21.7388 21.7474 21.7412 21.8101 21.7627L21.8522 21.8251L21.2752 21.8332L20.8137 21.8396L20.5746 21.9263L20.0095 21.9315C19.9963 21.9315 19.9369 21.9408 19.9285 21.9451L19.8706 21.9727C19.7615 22.0244 19.8518 21.9982 19.7303 22.0115L19.6258 22.0233C19.5453 22.0322 19.438 22.0579 19.3697 22.0817L19.2968 22.1069C19.4935 22.0385 18.8256 22.2177 18.9716 22.2092C18.8454 22.2167 18.5816 22.2115 18.4578 22.2402C17.8242 22.3856 18.1192 22.2463 17.4111 22.3836L16.9639 22.4703L16.2086 22.539C16.0763 22.5508 15.9506 22.5742 15.8108 22.6135L15.5335 22.6922L14.683 22.7129C14.6232 22.7145 14.4966 22.7749 14.4335 22.7799L13.7196 22.8374C13.585 22.8483 13.4645 22.8996 13.327 22.9042C12.8655 22.9193 12.7476 23.073 12.6172 23.0835C12.3327 23.1072 12.0035 23.0964 11.7328 23.1442C11.5991 23.1676 11.4842 23.1872 11.342 23.1971C11.1894 23.2081 11.0656 23.2478 10.915 23.2664L10.4559 23.3238L10.0256 23.4023L9.68992 23.4661L9.14087 23.5199L8.6098 23.6082C8.55142 23.618 8.46905 23.6398 8.41068 23.6544L7.99692 23.7574C7.91643 23.7773 7.76007 23.7805 7.689 23.8028C7.6057 23.829 7.51442 23.8673 7.44661 23.8751C7.18811 23.9041 6.82749 23.9747 6.7187 23.9764L5.87896 23.9909C5.85965 23.9909 5.81413 24.0599 5.73878 24.0668L5.64979 24.0747C5.33052 24.1029 5.50839 24.2357 5.33292 24.1202L4.88514 24.1785C4.73589 24.1981 4.56372 24.2914 4.41594 24.3379C4.11897 24.432 3.5236 24.6172 3.35272 24.8587C2.99078 25.3696 3.03274 25.7916 3.35605 26.2865L3.52905 26.5517L3.65858 26.753C3.92707 27.1706 4.22629 27.0275 4.40237 26.9996C4.74136 26.9464 5.10456 26.9773 5.46909 26.9716C5.6085 26.9694 5.7666 26.906 5.89939 26.8907C6.21628 26.8539 6.55355 26.8753 6.87755 26.8562C6.96373 26.8502 7.13202 26.7108 7.21676 26.6957C7.47428 26.6508 7.75546 26.6496 7.97463 26.717C8.18596 26.6568 8.45009 26.6148 8.66839 26.7163C8.91546 26.8312 8.83847 26.5374 9.48506 26.7077C10.0501 26.8565 10.2749 26.6909 10.3672 26.6854L11.2478 26.6352L11.5543 26.5652C11.5641 26.5628 12.809 26.7668 13.2372 26.6311L13.4274 26.5705C13.6448 26.5016 13.994 26.5846 14.2205 26.5364L14.6502 26.4444C14.9619 26.3778 15.079 26.3169 15.3552 26.1752L16.9094 26.1663C16.9513 26.1662 17.0755 26.0942 17.1235 26.0898C17.4418 26.0587 17.8884 26.1043 18.2043 26.0377L18.555 25.9637L18.7118 25.9282C18.7838 25.9122 18.8516 25.8923 18.9297 25.8772L19.3106 25.8036L20.5266 25.7469C20.6942 25.7393 20.8297 25.688 21.0172 25.687L24.0659 25.6689L24.3139 25.5865L24.8583 25.5602C25.1201 25.5475 25.0153 25.2364 25.1203 25.0259L25.3449 24.5749C25.4161 24.4323 25.513 24.1929 25.6773 24.1454C25.8289 24.1012 26.0568 24.1122 26.2194 24.1508C26.3306 24.1771 26.4669 24.4294 26.4691 24.5569C26.475 24.8663 26.48 25.1935 26.4477 25.5151C26.4349 25.646 26.3745 25.8083 26.3748 25.9508L26.3787 27.1995C26.3566 27.2439 26.3112 27.3599 26.2878 27.4009L26.2917 30.4755C26.2912 30.2998 26.4691 32.0275 26.4038 31.8939L26.4719 32.0333C26.5348 32.1616 26.481 32.5077 26.5125 32.6684L26.5825 33.0234L26.6498 33.387L26.71 34.3527L26.7749 34.7096L26.846 35.0998L26.8933 35.6126L26.9914 36.0547C27.0166 36.1677 27.0569 36.3014 27.0897 36.4202L27.1838 36.7602L27.2736 37.1079L27.3715 37.495L27.4775 37.913C27.5118 38.0481 27.554 38.1746 27.4869 38.3071C27.2549 38.7672 26.9319 38.6274 26.7548 38.5999C26.3708 38.5402 26.4156 38.3644 26.2229 38.1551L25.8173 37.7147C25.7356 37.6259 25.6404 37.6021 25.5123 37.6019L23.52 37.6017L21.7877 37.6043C21.7468 37.6044 21.6269 37.52 21.6053 37.5201L20.4801 37.5193C20.3487 37.5196 20.2286 37.5324 20.1566 37.5436C20.1167 37.5952 20.1063 37.6092 20.1214 37.5894C20.0374 37.5194 20.0114 37.5175 19.9535 37.5181L19.2395 37.5236C19.0869 37.525 18.8683 37.5043 18.7435 37.4801C18.5479 37.4492 18.7959 37.5617 18.5918 37.4828C18.5748 37.4761 18.497 37.4267 18.4508 37.4268L15.3485 37.4278L14.9005 37.4212L14.4089 37.2457L13.9383 37.2319L13.6363 37.1633L12.9453 37.136L12.7317 37.0643L11.7073 37.0427L11.3397 36.9564L9.81986 36.9672C9.5773 36.9687 9.17917 37.1082 8.98974 37.2709L8.98334 38.1583C9.28227 38.4973 9.1675 38.563 9.62833 38.8536C9.90332 39.0271 10.129 39.0771 10.5228 39.2841L11.2924 39.689C11.4867 39.791 11.6909 39.906 11.9016 39.9748L12.8113 40.2711L13.5608 40.5629L14.0817 40.7513C14.1802 40.7871 14.3282 40.7993 14.4464 40.825L14.9177 40.9269C15.1457 40.9759 15.3802 41.1399 15.6172 41.1995L15.8204 41.251L16.4153 41.3074C16.9307 41.3563 16.6718 41.6023 17.9883 41.668C18.0816 41.6726 18.1924 41.6974 18.281 41.7212L18.6985 41.8334L19.1913 41.8779C19.3632 41.8934 19.4999 41.9451 19.6808 41.9475C19.832 41.9496 19.9658 41.9854 20.1077 42.0153L20.5732 42.1139L21.4696 42.1628C21.5521 42.1674 21.9986 42.3815 22.5964 42.4268C22.7386 42.4375 22.8616 42.4661 22.9964 42.4807L23.5292 42.5377C22.228 42.3983 26.2887 42.9509 23.8071 42.5399C23.8443 42.5461 23.9877 42.6463 23.9273 42.5969C23.9995 42.6559 23.8638 42.4055 24.2871 42.5763C24.4219 42.6309 24.662 42.5836 24.8048 42.6252L25.1795 42.734C25.3341 42.7789 25.4863 42.7959 25.6629 42.8027L26.077 42.819C26.0972 42.8199 26.1707 42.8077 26.189 42.8048C26.206 42.8024 26.2018 42.8365 26.2099 42.8803L26.639 42.9048L26.8889 42.9894L27.8709 42.9861L28.1301 43.0688L29.5361 43.0958L29.7129 43.1729L30.0831 43.1826C30.1245 43.1835 30.2401 43.2554 30.2825 43.2644L31.5971 43.2845L31.9703 43.363L33.8566 43.3653L34.191 43.3612C34.4006 43.3588 34.6407 43.3414 34.8297 43.3862C35.2567 43.4867 34.8074 43.3227 35.6911 43.3538C35.7311 43.3552 35.8405 43.3973 35.8706 43.4083C35.9483 43.3889 36.0702 43.3573 36.1814 43.3561L39.4919 43.3305C39.4764 43.3306 40.115 43.139 40.2008 43.1417L40.5587 43.1529C40.6421 43.1556 40.7974 43.0849 40.8859 43.0804L42.0962 43.0184C42.237 43.0113 42.3772 42.9571 42.5218 42.9524C42.6956 42.9467 42.8312 42.9248 42.9861 42.8845C43.0675 42.8636 43.2328 42.8593 43.3109 42.8332L43.6705 42.713C44.0126 42.5986 43.9488 42.7066 44.3523 42.6368L44.5486 42.6027C44.7002 42.5763 44.8592 42.4913 45.0311 42.4803L45.6268 42.4433C45.6009 42.4448 46.3365 42.1904 46.3845 42.1711C46.7247 42.0346 46.8109 42.0589 47.1723 41.9175L47.6424 41.7336L48.4226 41.431C48.7628 41.2988 49.4581 40.9469 49.7435 40.7426L49.9683 40.5819L50.4951 40.2928L50.8681 40.0889C50.9556 40.0411 51.0967 39.9488 51.1733 39.8861L51.6166 39.5232L51.8512 39.3311C51.9372 39.2611 52.0002 39.2018 52.072 39.1106C52.5219 38.5437 52.5674 38.6509 52.9964 38.235C53.105 38.1299 53.2164 38.042 53.3297 37.9518C53.6103 37.7278 53.8915 37.5318 54.2919 37.5318L58.9989 37.5334C58.9165 37.5336 59.6583 37.7137 59.9437 37.7131L60.6257 37.7115C60.6356 37.7114 60.7025 37.7402 60.7096 37.7445L60.761 37.7776C60.769 37.7828 60.8345 37.8024 60.8454 37.8024L62.2174 37.8093C62.2442 37.8092 62.3165 37.8971 62.3348 37.886L62.4519 37.8164C62.5658 37.7488 62.7422 37.8846 62.8656 37.8862L64.3582 37.902C64.4129 37.9023 64.5581 37.9934 64.6123 37.9928L66.9098 37.9827C66.9936 37.9825 67.1417 38.0529 67.2133 38.0575C67.7507 38.0904 68.2919 38.0819 68.8415 38.0768C69.3737 38.0717 69.0654 38.1677 69.4064 38.1684L71.6507 38.1727L71.7111 38.2193C71.7182 38.225 71.7635 38.2466 71.771 38.248L71.8567 38.2608L71.9519 38.2625L72.0461 38.2637L72.1393 38.265L72.2335 38.2662L72.3287 38.2674L72.4215 38.2672L72.5166 38.267L72.6108 38.2668L72.705 38.2661L72.7987 38.2658L72.8934 38.2666L72.9881 38.2664L73.0799 38.2661L73.321 38.2641L73.2529 38.322C73.2421 38.3331 73.2341 38.3476 73.2487 38.348L73.3632 38.3497L73.6952 38.3561C73.7287 38.357 73.8289 38.3091 73.8538 38.2971C74.0264 38.3669 74.2647 38.3967 74.4572 38.3159C74.8322 38.1586 74.9828 38.3161 75.1353 38.284L75.2069 38.2689C75.2959 38.2499 75.3419 38.3946 75.4576 38.3222L75.5145 38.2869C75.5225 38.2816 75.5818 38.254 75.5907 38.254L75.9114 38.2465L75.8838 38.3063L75.7689 38.2993L75.6647 38.2928C75.6149 38.3175 75.5707 38.3397 75.5918 38.3291L75.956 38.3557C76.0068 38.3594 76.1342 38.4457 76.2016 38.4465L78.2476 38.4591L78.4365 38.4702L78.6462 38.5342L80.6861 38.5386C80.7455 38.5663 80.8827 38.6281 80.9467 38.628L83.6393 38.6231L83.7677 38.7186L84.2349 38.7151C84.2523 38.715 84.3574 38.7485 84.3736 38.8062L87.0022 38.8058C87.1366 38.8989 87.1625 38.9031 87.3076 38.9033L87.4032 38.9031L87.496 38.9029L87.5907 38.9012L87.6839 38.8995L87.7781 38.8979L87.8751 38.8962L87.9684 38.896L88.063 38.8986L88.1558 38.9008L88.2571 38.903C88.38 38.9056 88.4921 38.8846 88.6182 38.8309C88.5833 38.8012 88.6182 38.8309 88.6385 38.8482L88.7092 38.8947L89.3602 38.9038L89.5841 38.9827L93.2639 38.989C93.5846 38.9897 93.8734 38.9828 94.1678 39.0374C94.7224 39.1401 95.0216 38.9883 95.3296 39.1569L98.2305 39.1839L98.7926 39.2749C98.892 39.2911 98.9913 39.2807 99.0775 39.2892L99.7955 39.3602C100.02 39.3823 100.226 39.3727 100.452 39.362C100.874 39.3428 101.29 39.3529 101.712 39.3557L102.02 39.3584L102.466 39.3732C102.504 39.3746 102.618 39.4518 102.659 39.4603C103.139 39.5617 103.359 39.5155 103.93 39.5916C104.331 39.6451 104.705 39.6731 105.109 39.688C105.401 39.6984 105.279 39.615 105.491 39.6621C106.44 39.8716 106.387 39.7856 107.282 39.8162L107.704 39.8307L108.271 39.8558L108.746 39.8893C108.871 39.8982 109.043 39.9469 109.167 39.9471L112.368 39.956L113.026 39.9905L113.547 39.958L114.82 39.9368L115.282 39.9059L115.522 39.8962L116.038 39.8747L116.334 39.8625C116.642 39.8497 116.618 39.7781 116.779 39.8432C117.135 39.9867 117.484 39.8199 117.823 39.8123C118.245 39.8027 118.229 39.7825 118.631 39.7811C119.468 39.7782 119.128 39.7102 119.808 39.6869L120.628 39.659L120.683 39.618C120.691 39.6117 120.743 39.5856 120.752 39.5851L120.844 39.5801L120.942 39.575C120.965 39.574 121.007 39.571 121.02 39.5686L121.1 39.554C121.126 39.5491 121.166 39.5399 121.178 39.5398L121.265 39.5382L121.363 39.538L121.457 39.5382L121.548 39.538L121.642 39.5388L121.737 39.5395L121.832 39.5402L121.928 39.541L122.022 39.5417C122.157 39.5428 122.151 39.5419 122.257 39.4892L122.32 39.4582C122.359 39.4389 122.439 39.4378 122.491 39.4381L122.585 39.4393L122.679 39.4406L122.774 39.4432L122.87 39.4459L123.106 39.453C123.275 39.4584 123.17 39.3441 123.297 39.3323L123.664 39.2992L124.238 39.2589C124.864 39.2146 125.009 39.0992 125.311 39.0952L125.992 39.0859C126.085 39.0847 126.092 39.064 126.244 39.0569L126.401 39.0493L126.405 40.7836C126.272 40.8143 126.087 40.8725 125.937 40.8733L124.097 40.8838L123.89 40.8843C123.635 40.8864 123.782 40.9673 123.561 40.9674L123.485 40.9676C123.4 40.9678 123.35 40.8793 123.313 40.9001L123.257 40.931C123.083 41.0267 123.078 40.8934 122.985 40.9447L122.921 40.9795C122.821 41.0341 122.929 41.0035 122.799 41.0216L122.748 41.0289C122.672 41.0397 122.751 41.0612 122.567 41.0693L122.505 41.0723L122.438 41.0749L122.355 41.078L122.264 41.0801L122.165 41.0803L122.065 41.0815C122.043 41.0816 121.999 41.0836 121.982 41.0856L121.905 41.0954C121.884 41.0979 121.856 41.1047 121.847 41.1042L121.8 41.1024L121.752 41.0938C121.735 41.091 121.702 41.0814 121.693 41.0824L121.626 41.0922L121.545 41.1092L121.459 41.1272L121.376 41.1448L121.298 41.1608L121.217 41.1779C121.205 41.1803 121.143 41.1905 121.131 41.1896L121.031 41.1812L120.951 41.1722L120.887 41.156L120.837 41.1455C120.82 41.1417 120.795 41.1326 120.786 41.1336L120.723 41.141C120.712 41.142 120.677 41.155 120.653 41.1628L120.578 41.1866L120.501 41.2113L120.419 41.2384C120.41 41.2413 120.366 41.2515 120.355 41.2535L120.271 41.2667L120.189 41.2799L120.107 41.2935L120.029 41.3062L119.946 41.3204C119.928 41.3233 119.88 41.3297 119.864 41.3297L119.768 41.329L119.672 41.3292L119.575 41.328L119.473 41.3282C119.463 41.3278 119.419 41.3336 119.398 41.337L119.332 41.3478C119.314 41.3507 119.29 41.3565 119.283 41.3561L119.237 41.3509L119.179 41.3453C119.17 41.3443 119.124 41.3425 119.115 41.344L119.04 41.3591C118.975 41.3717 118.959 41.3886 118.883 41.3686L118.808 41.349C118.784 41.3428 118.744 41.3275 118.731 41.3285L118.65 41.3364L118.57 41.3549L118.492 41.3728L118.412 41.3913C118.391 41.3962 118.353 41.4049 118.342 41.4059L118.254 41.4158L118.164 41.427L118.074 41.4393C118.064 41.4407 118.017 41.4567 118.008 41.4611L117.941 41.492L117.873 41.5225C117.864 41.5269 117.801 41.5318 117.791 41.5294L117.711 41.5113L117.635 41.4942L117.558 41.4766L117.481 41.4589L117.398 41.4404C117.387 41.438 117.335 41.4266 117.315 41.4276L117.225 41.4316L117.146 41.4472L117.07 41.4623L116.987 41.4779L116.903 41.4945L116.826 41.51C116.756 41.5242 116.733 41.5276 116.662 41.5287L116.565 41.5304L116.469 41.5306L116.375 41.5308L116.281 41.531L116.187 41.5313L116.092 41.5315L115.997 41.5303C115.909 41.5295 115.896 41.5266 115.822 41.5408L115.74 41.5559L115.659 41.571L115.581 41.5861C115.563 41.5895 115.537 41.5924 115.519 41.5944L115.461 41.6008L115.4 41.6077L115.327 41.6165L115.236 41.6283C115.222 41.6302 115.178 41.6318 115.156 41.6318L115.056 41.6321L114.96 41.6318L114.856 41.6321C114.845 41.6316 114.793 41.636 114.778 41.639L114.696 41.6522C114.672 41.6561 114.636 41.6653 114.625 41.6644L114.556 41.6578L114.476 41.6507C114.466 41.6498 114.429 41.6509 114.404 41.6509L114.333 41.652L114.269 41.6532L114.203 41.6548L114.131 41.6568L114.057 41.6594L113.989 41.661L113.925 41.6621L113.859 41.6681L113.773 41.6764C113.762 41.6774 113.705 41.679 113.694 41.6776L113.618 41.6657C113.522 41.651 113.632 41.6489 113.494 41.6627L113.407 41.6715C113.383 41.674 113.344 41.6765 113.321 41.6765L113.222 41.6768L113.128 41.678C112.583 41.6831 112.835 41.786 112.093 41.74C111.54 41.7057 111.576 41.774 110.912 41.6908L110.82 41.679L109.586 41.5327C109.573 41.5313 109.52 41.5309 109.489 41.5305L109.271 41.5267L108.914 41.5328C108.682 41.5367 108.465 41.5474 108.225 41.5027C108.019 41.4647 107.821 41.4545 107.613 41.4353L107.01 41.3794C106.358 41.3189 106.973 41.4344 106.208 41.3486L105.734 41.2953L105.309 41.2477C105.102 41.2246 104.895 41.2424 104.692 41.2405L103.606 41.2286C103.402 41.2262 103.144 41.2643 102.966 41.205L102.755 41.1348L101.913 41.0771C101.79 41.0687 101.84 41.148 101.695 41.1156L101.608 41.0961C101.52 41.0766 101.439 41.0503 101.303 41.0833L101.218 41.1037L101.144 41.1203C101.13 41.1232 101.082 41.1512 101.053 41.1652C100.573 40.8401 99.8748 41.244 99.3733 41.1138L98.9002 40.9912L98.2823 40.8122C98.033 40.7401 97.8207 40.8171 97.6569 40.8657C97.6259 40.8749 97.5326 40.8756 97.4978 40.8795C97.2299 40.9124 96.9919 40.8561 96.721 40.8245C96.1458 40.7585 95.6161 40.8526 95.0752 40.762C94.9956 40.7487 94.882 40.7138 94.809 40.7135L93.493 40.7012C93.4012 40.7004 93.2768 40.6612 93.1788 40.6451C92.9248 40.6038 92.6554 40.6285 92.3988 40.6272L91.8256 40.6247C91.4987 40.623 91.5514 40.4083 91.5324 40.5426L91.5231 40.6086L91.4652 40.602C91.4365 40.5986 91.3665 40.5103 91.3614 40.5315C91.3614 40.5315 91.3313 40.5537 91.3149 40.5657L91.257 40.6082C91.2011 40.6497 91.118 40.5546 91.0732 40.5456C91.0558 40.5423 90.9824 40.5954 90.9763 40.5915L90.9211 40.5585L90.3694 40.4977C90.3643 40.4972 90.3204 40.4785 90.3119 40.4757L90.2563 40.4575C90.1569 40.425 90.0127 40.4003 89.9238 40.4559L89.8692 40.4902C89.9083 40.4655 89.5582 40.4211 89.3835 40.4215L89.2869 40.4218L89.1932 40.4244L89.099 40.4275L88.9916 40.4311L88.856 40.4362C88.8381 40.4368 88.8108 40.4219 88.7782 40.408C88.7603 40.4004 88.8389 40.3877 88.8564 40.3867L88.9595 40.3831L89.0829 40.3789C89.0881 40.3727 89.088 40.3419 89.0734 40.3419L88.9354 40.3422L86.1735 40.3361C86.1523 40.3362 86.0886 40.3031 86.0816 40.2983C85.9396 40.2048 84.6511 40.2492 84.4274 40.2834C84.1445 40.3264 83.929 40.428 83.6789 40.2472L83.6253 40.2742L83.5735 40.2907L83.5133 40.312L83.4394 40.3406C83.431 40.344 83.3833 40.3306 83.3654 40.3249L83.0836 40.2399C83.0718 40.2366 82.9706 40.2743 82.956 40.2715L82.539 40.1858C81.7869 40.0312 81.6399 40.3838 81.1002 40.2233C80.8023 40.1345 81.0875 40.2128 80.8444 40.2042L80.4864 40.1916L80.2429 40.1763C79.9367 40.1568 79.6048 40.1975 79.3192 40.138C79.1255 40.0975 78.9411 39.9786 78.7536 40.1456C78.688 40.1072 78.5059 39.9806 78.3976 39.9809L76.4209 39.9802C76.3855 39.9803 76.3144 39.9602 76.3039 39.9333L76.2821 39.8766L76.2399 39.9277C76.067 40.1364 75.8289 39.805 75.5965 39.9359C75.5542 39.9596 75.4504 39.8982 75.401 39.8974L74.3455 39.8825L73.8396 39.8885L73.7299 39.8897C73.7237 39.8796 73.6954 39.8345 73.7077 39.8542L73.7759 39.8223L73.6303 39.8226C73.6195 39.8221 73.5832 39.8164 73.5635 39.8136L73.4989 39.8051C73.4791 39.8023 73.4344 39.7975 73.4155 39.7981L72.7971 39.8038C72.7378 39.804 72.7053 39.818 72.653 39.8148L72.5918 39.8111L72.5188 39.8064L72.4265 39.8009C72.4015 39.7995 72.3657 39.7991 72.3365 39.7996L72.2385 39.8013L72.1443 39.8025L72.0501 39.8027L71.9555 39.8039L71.8622 39.8031L71.7671 39.8019L71.6729 39.8012L71.5801 39.8004L71.4878 39.7997L71.3931 39.7989L71.2961 39.7992L71.2005 39.7984L71.1067 39.7986L71.013 39.7984L70.9188 39.7986L70.8246 39.7988L70.7309 39.799L70.6358 39.8002L70.5274 39.8014L70.4807 39.7578L70.6041 39.756L70.6304 39.7069L68.939 39.7017C68.9216 39.7017 68.8646 39.7019 68.8585 39.6966L68.8287 39.6711C68.8287 39.6711 68.7919 39.6178 68.7264 39.6175L67.4929 39.616L67.3855 39.6163L67.2866 39.6165C67.0309 39.6181 67.2049 39.5243 66.8229 39.5247L63.7455 39.5276C63.7036 39.5147 63.729 39.4973 63.8023 39.4601L63.7703 39.4452L63.4491 39.4561C63.3318 39.4602 63.2131 39.4533 63.0916 39.4497L62.3851 39.4292C62.2178 39.4243 61.8176 39.2621 61.4302 39.3737C61.2876 39.4149 61.2462 39.403 61.1005 39.3716C60.8937 39.3278 60.575 39.4113 60.3648 39.3406L60.09 39.2478L58.0548 39.2478C58.0021 39.2335 57.9502 39.2196 57.9917 39.2306L58.065 39.1645L57.635 39.1636L57.5427 39.1638L57.4485 39.1631L57.3543 39.1633L57.2601 39.1621L57.1659 39.1623L57.0717 39.1615L56.978 39.1617L56.8838 39.162L55.4708 39.1662L55.3761 39.1664L55.2819 39.1662L55.1878 39.1664L55.0936 39.1652L54.9994 39.1654L54.8962 39.1637C54.7709 39.1626 54.6114 39.2072 54.5158 39.2122C54.5214 39.2122 54.2824 39.1103 53.9961 39.3376L53.6698 39.5973L52.7563 40.4767L52.3026 40.8411L51.9839 41.094C51.8823 41.1746 51.7634 41.261 51.6524 41.3291L51.1562 41.6344L50.6831 41.9257C50.6036 41.9745 50.4837 42.0739 50.4056 42.1131L49.9982 42.3181L49.6543 42.4902L49.3377 42.63L48.5873 42.998L48.1507 43.1905C47.1876 43.6153 47.4345 43.2499 47.0447 43.5526C46.9939 43.5921 46.8503 43.6098 46.7764 43.6297L46.3999 43.7312L46.0181 43.8283L45.4999 43.9811L45.0692 44.074L44.6912 44.1654L44.1333 44.2682L43.6719 44.3184L43.1945 44.4181C42.7445 44.5125 42.8988 44.4554 42.477 44.5464L41.9611 44.6583L41.2147 44.7033L40.8738 44.7686L40.4525 44.8398C40.0085 44.915 39.3513 44.8491 38.9728 44.9078C38.824 44.9307 38.6851 44.9676 38.5297 44.9747C38.3578 44.9828 38.2171 45.0173 38.0552 45.0509L37.7454 45.1147C37.6611 45.1322 36.918 44.9708 36.7282 45.1642C36.7263 45.1661 36.6758 45.1191 36.6612 45.1081C36.5083 44.9939 36.4523 45.2178 36.2247 45.188L35.9265 45.1488L36.3918 45.1116L36.3686 45.0659L36.2683 45.069L36.1741 45.0721L36.0818 45.0748L35.9895 45.0769L35.8943 45.0791L35.7997 45.0802L35.4657 45.081L35.3725 45.0812L35.2783 45.0815L35.1841 45.0817L35.0908 45.0809L34.9976 45.0802L34.9001 45.079C34.6575 45.0767 34.5957 45.2346 34.1317 45.1794C34.0073 45.1648 34.1672 45.085 33.773 45.0845L32.287 45.0836C32.2496 44.9745 31.8907 44.9897 31.797 44.9895L31.2652 44.9888L30.2215 44.9888C30.2078 44.9629 30.1898 44.9283 30.1865 44.9278L29.6288 44.8786C29.7205 44.8163 29.7299 44.8028 29.6541 44.8366L29.5316 44.7999L29.4571 44.7789C29.2879 44.7316 29.4952 44.7528 29.3577 44.7647L29.1632 44.7815C29.1543 44.7825 29.0957 44.7172 29.0868 44.7124L27.0968 44.7136C26.8128 44.7138 27.0259 44.5964 26.4711 44.6198L26.3708 44.6239C25.7021 44.6524 26.3363 44.5427 25.4687 44.5327C25.4842 44.5326 24.8117 44.3686 24.8433 44.37L23.2766 44.3125L22.8422 44.2428C22.7061 44.221 22.5925 44.1953 22.4615 44.1754L22.0931 44.119L21.6577 44.0382C21.6101 44.0291 21.5399 44.0077 21.4937 43.9967L21.2029 43.9271C21.0762 43.8966 20.9527 43.8704 20.8152 43.8669C20.6517 43.8625 20.5329 43.817 20.3765 43.7991L19.896 43.7434C19.7895 43.7312 19.699 43.6982 19.5935 43.684C18.9815 43.6017 19.3728 43.5859 18.7643 43.595C18.6094 43.5973 18.7831 43.5612 18.3189 43.4646L18.1804 43.4361L17.7252 43.3371C17.2582 43.2356 17.4766 43.3617 17.1499 43.2417C17.0848 43.2178 16.9633 43.207 16.8554 43.2C16.7085 43.1907 16.5737 43.1559 16.4262 43.1322C15.9489 43.0568 15.5658 43.1679 15.2693 43.0512L14.7587 42.8502C14.6715 42.8158 14.5711 42.778 14.4848 42.7498L14.162 42.6437C13.8358 42.5367 13.8277 42.3134 13.4608 42.4813C13.2443 42.5804 13.3182 42.3334 13.0047 42.2384L12.6319 42.1257L12.2907 42.0317C12.2978 42.0336 11.6118 41.7527 11.734 41.839L11.6666 41.7915L11.4686 41.7386C11.438 41.7305 11.3946 41.6897 11.3413 41.684L11.2471 41.6736C11.1816 41.6666 11.1364 41.6739 11.0836 41.6437L11.0232 41.6097L10.9638 41.5761L10.9025 41.5416C10.8374 41.5047 10.8483 41.5134 10.7776 41.4851L10.7083 41.4574L10.6413 41.4296C10.6239 41.4225 10.5895 41.4071 10.5772 41.4043L10.4966 41.3828L10.416 41.3618C10.4042 41.359 10.3599 41.3446 10.3524 41.3398L10.2929 41.2986L10.2354 41.2593L10.1774 41.2199L10.1109 41.1907C10.0312 41.1553 10.0982 41.2071 10.0411 41.1423C9.97544 41.0679 9.60845 41.0312 9.30056 40.6878L9.25051 40.6321C9.2439 40.6249 9.15707 40.5534 9.1467 40.5505L9.07412 40.5305C9.05339 40.5248 8.99636 40.5081 8.97844 40.5009L8.36656 40.2704C8.12756 40.1805 7.72596 39.639 7.57181 39.3805L7.49616 39.2532C7.29898 38.9216 7.42372 38.8881 7.22742 38.5281C6.77228 38.2568 6.9924 38.1268 6.62027 38.1055L6.48496 38.05L6.18285 37.9608C5.98254 37.9016 5.82266 37.8081 5.64292 37.6805C5.42449 37.5251 5.31535 37.5807 5.29904 37.4537C5.28996 37.3988 5.27945 37.3339 5.28709 37.382L5.22975 37.4307L5.19006 37.3779C5.16408 37.3433 5.13335 37.2972 5.09092 37.279L5.01973 37.2484L4.9575 37.223C4.95137 37.2206 4.89813 37.2121 4.89247 37.2087L4.51138 36.9796C4.50383 36.9753 4.46559 36.934 4.45473 36.9224L4.41082 36.8778C4.36125 36.8274 4.37398 36.8322 4.30937 36.7981L4.24383 36.7637L4.17922 36.7296L4.11509 36.6966L4.05143 36.664L3.98966 36.6329C3.97268 36.6242 3.93636 36.6022 3.92459 36.6003L3.84307 36.586L3.76391 36.5718C3.75543 36.5704 3.71063 36.5464 3.7045 36.5416L3.65353 36.5004L3.59739 36.4572C3.58936 36.4509 3.54977 36.439 3.52903 36.4309L3.45172 36.4017C3.30559 36.3467 3.14708 36.2378 3.02296 36.1313L2.96916 36.0847L2.92385 36.0449C2.81106 35.9465 2.95929 35.6901 2.47423 35.3097C2.43459 35.2785 2.37162 35.1376 2.33949 35.0953C2.21336 34.9301 2.04671 34.7664 2.02346 34.6914L1.93709 34.4129C1.92902 34.3865 1.91763 34.349 1.90958 34.3302L1.8518 34.1932L1.82671 34.137L1.64631 33.7288C1.56013 33.5341 1.77305 33.3455 1.38971 32.7564C1.33109 32.6665 1.29274 32.7797 0.999758 32.3661C0.936437 32.2767 0.789669 32.1519 0.740013 32.0654L0.4624 31.5757C0.367814 31.4094 0.258631 31.2446 0.20687 31.0628C0.0629784 30.5564 -0.0577355 30.4961 0.0291455 29.7827C0.085993 29.3182 0.191822 29.2568 0.259174 29.055C0.341493 28.8089 0.382685 28.4979 0.556015 28.2988C0.713844 28.1175 0.872657 27.954 1.0555 27.7933C1.22424 27.6452 1.81689 27.5095 1.70707 27.2706L1.53759 26.9019C1.49593 26.8115 1.465 26.6749 1.44406 26.5816L1.34601 26.1401L1.28225 25.8645C1.27654 25.8409 1.27547 25.786 1.27589 25.7639C1.21809 25.6153 1.23509 25.4353 1.28274 25.2682L1.39346 24.8791C1.4355 24.7313 1.58017 24.358 1.65815 24.2731L2.00204 23.8974C2.15707 23.7282 1.95561 23.7816 2.21839 23.5639C2.30864 23.4891 2.39982 23.4061 2.48023 23.3501L2.74026 23.1686C3.00829 22.9812 3.38141 22.8206 3.7047 22.702C3.89764 22.6312 4.12098 22.469 4.32158 22.4517L4.72843 22.4161C4.83438 22.4067 4.9323 22.3877 5.0533 22.3692C5.24304 22.3398 5.5492 22.3444 5.73238 22.3324C5.77712 22.3295 5.8961 22.2527 5.94037 22.2506L6.40613 22.2293C6.50173 22.2248 6.68128 22.0684 6.7778 22.0547C7.07168 22.0492 7.37359 22.05 7.66837 22.0276C7.77103 22.0197 7.9343 21.9471 8.04686 21.9454C8.43258 21.9397 8.8071 21.974 9.17293 21.9183C9.33677 21.8933 9.47328 21.8608 9.66258 21.8435C9.76241 21.8341 9.93824 21.6994 10.0409 21.6843L10.7824 21.5757L11.5736 21.5306L11.9611 21.4604C12.3024 21.3984 12.4981 21.3297 12.71 21.2931L13.2811 21.1955L13.8027 21.0956L14.1224 21.0289C14.1717 20.9976 14.1981 20.9806 14.192 20.9845C14.3026 21.1739 14.8486 21.0253 15.0049 21.0038L15.7672 20.8971L16.3425 20.7947C16.5294 20.7615 16.8017 20.7782 16.9985 20.7725C17.0541 20.7709 17.1854 20.6979 17.2419 20.6925C17.5004 20.6678 17.8537 20.6887 18.1065 20.6419L18.4596 20.5766C18.5471 20.5605 18.6408 20.5396 18.6925 20.486C18.8588 20.3148 19.0876 20.2397 19.317 20.269C19.5464 20.2983 19.7337 20.2295 19.9649 20.2136L20.7033 20.1623C20.555 20.1727 21.4575 20.0128 21.3963 20.023L21.7776 19.9582C21.8026 19.9538 22.7061 19.8184 22.6562 19.8218L23.3367 19.7702L23.7255 19.6721C23.8662 19.6366 23.9947 19.607 24.1511 19.5999C24.3074 19.5928 24.4297 19.5396 24.5795 19.5277L25.227 19.4771C25.3918 19.4642 25.532 19.4066 25.703 19.4042C25.8739 19.4019 26.026 19.3775 26.1804 19.3348L26.5602 19.23L26.9048 19.1396C27.127 19.0814 27.486 19.1224 27.7134 19.1002C27.7605 19.0958 27.8879 19.0199 27.935 19.0193L29.1911 19.002C29.5708 18.8317 29.8796 18.9715 30.3066 18.8882L30.752 18.801C31.082 18.7363 31.1589 18.6047 31.3729 18.6586C31.4601 18.6805 32.0993 18.5419 31.9892 18.5498L32.7092 18.4967C32.8947 18.4832 33.0467 18.4208 33.2398 18.4252C33.4127 18.4286 33.5482 18.3705 33.7186 18.3519L34.2116 18.2978L34.4597 18.2274C34.4761 18.2226 34.4929 18.3207 34.5103 18.3216C34.6262 18.3252 35.1881 18.1569 35.2107 18.1559L36.3942 18.1117L37.2381 17.8494L37.8446 17.8105L38.2824 17.7204C38.3455 17.7073 38.4382 17.6729 38.5135 17.6443C38.7084 17.7969 38.8848 17.7084 39.1075 17.6665C39.47 17.5983 40.0604 17.71 40.1105 17.5809C40.1311 17.5279 40.1958 17.3931 40.1989 17.3334C40.2228 16.8694 40.2261 16.4536 40.0861 16.0103L39.8916 15.3933L39.7995 15.1014C39.6742 14.7052 39.6026 14.2679 39.3066 13.7859L39.1104 13.4659C38.9237 13.1612 38.9124 12.7868 38.77 12.5081C38.5661 12.1091 38.584 12.1129 38.4779 11.6724C38.4603 11.5993 38.2345 11.1017 38.2305 11.0002L38.1896 10.0402C38.1837 9.9002 38.0962 9.76999 38.1619 9.64375C38.2406 9.49198 38.2062 9.27647 38.1475 9.12695C38.1619 9.07302 38.2017 8.9454 38.203 8.88717L38.2234 7.97182C38.2264 7.83851 38.2886 7.63769 38.325 7.5096L38.4124 7.20671L38.5217 6.82676L38.6077 6.54119L38.6989 6.25128C38.726 6.16411 38.7611 6.04998 38.7952 5.96665C39.1062 5.20991 39.0806 5.13779 39.5992 4.53696L39.9618 4.11697L40.3021 3.63013C40.3913 3.50288 40.2129 3.53361 40.3211 3.49438C40.4518 3.37617 40.6609 3.1779 40.7628 3.05254C41.1028 2.63501 41.0815 2.78809 41.4241 2.45476C41.5886 2.29461 41.4444 2.2858 41.5461 2.24081C41.6279 2.20501 41.8124 2.1348 41.8839 2.08025L42.0865 1.92578C42.1909 1.84614 42.2971 1.75398 42.4034 1.68347L43.1017 1.2213C43.1473 1.19136 43.2258 1.10071 43.2747 1.08615C43.3674 1.05851 43.4875 1.02406 43.5656 0.990192L43.8827 0.851821C43.9594 0.818437 44.0796 0.683412 44.1516 0.621647C44.8389 0.48193 44.5891 0.215431 45.0932 0.078548C45.1375 0.0664141 45.2523 0.0160983 45.3012 0.0155028L46.1193 0.000119278L47.6016 0.019278C47.6769 0.0200646 47.8509 0.0966552 47.923 0.129692L48.4271 0.36143C48.5511 0.418407 48.7603 0.460267 48.8523 0.553892L49.7319 1.44885C49.797 1.51511 49.9403 1.95365 49.9603 2.06237L50.0099 2.33463C50.0176 2.37647 50.0271 2.43853 50.0216 2.47271L49.9658 2.79911C49.9495 2.89492 49.847 3.34318 49.8216 3.37115C49.652 3.55682 49.426 3.79748 49.238 3.95721C49.1205 4.0571 48.9879 4.13344 48.8882 4.23569C48.7642 4.36351 48.6298 4.4976 48.5308 4.63354L48.265 4.99701L48.0369 5.33681C47.6305 5.94218 46.942 7.43367 46.8005 8.13756L46.7102 8.58676C46.6701 8.78463 46.6963 9.08197 46.6855 9.28989C46.6828 9.34524 46.5246 9.80037 46.626 10.239C46.7654 10.8431 46.6217 10.445 46.76 10.9524C46.7833 11.0384 46.786 11.2175 46.8121 11.2968L46.9174 11.6171C46.9359 11.6728 47.02 11.7886 47.0197 11.8449L47.0199 11.9253L47.08 12.043C47.0905 12.1012 47.1006 12.1898 47.1144 12.0588C47.1351 12.0703 47.1455 12.0809 47.147 12.0997C47.18 12.5067 47.5538 13.2739 47.7836 13.6396C47.9812 13.9533 48.5015 14.302 48.6587 14.6486L48.9357 14.8943C48.9858 14.939 49.0646 14.9999 49.124 15.0445L49.4014 15.2546C49.5251 15.3487 49.7024 15.4767 49.7904 15.619L49.9374 15.8564L50.5111 16.4546L50.6269 16.6546C50.7262 16.8261 51.5512 17.5292 51.6504 17.669L51.9282 18.0586L52.2102 18.3891L52.4743 18.7499C52.6222 18.9516 52.7147 19.2243 52.8334 19.4468C52.9682 19.7001 53.0673 19.9467 53.1818 20.2034L53.348 20.5765L53.5214 20.988C53.5032 21.0891 53.5188 21.0833 53.5713 20.9816L53.6066 21.1972L53.6407 21.264L53.6564 21.3337C53.7706 21.8411 53.7238 21.5496 53.8709 22.0305L54.0195 22.5172L54.244 23.2529C54.2682 23.3323 54.2705 23.5127 54.2886 23.6003L54.3815 24.0485L54.4715 24.4944L54.572 24.9519C54.5791 24.985 54.6326 25.086 54.6336 25.124L54.6468 25.7443C54.6495 25.8665 54.79 26.1612 54.9196 26.1613L57.0498 26.1674C57.1191 26.1673 57.2663 26.1 57.3374 26.0922C57.5592 26.0681 57.7895 26.0685 58.0382 26.0689C58.1315 26.0687 58.2872 25.998 58.3743 25.9954L59.9459 25.9417C60.0373 25.9386 60.1925 25.8699 60.2858 25.8683L61.2207 25.8536C61.2207 25.8536 61.1999 25.8329 61.1437 25.7767L63.2636 25.7675C63.3526 25.7673 63.5079 25.6899 63.5865 25.6849C63.9218 25.6629 64.2526 25.7194 64.5817 25.6624L64.963 25.596L66.958 25.5591C67.1276 25.5559 67.2777 25.5045 67.4515 25.4935L68.2012 25.447C68.3194 25.4395 68.4525 25.3713 68.5801 25.3696L69.3167 25.3607L69.5426 25.2735L70.4149 25.2691C70.5204 25.2688 70.6601 25.1992 70.751 25.1956L71.9698 25.1437C72.1398 25.1366 72.3125 25.0736 72.4853 25.0742C73.4405 25.0791 73.2109 24.9801 73.5236 24.975L74.2188 24.9642C74.2645 24.9636 74.3854 24.8945 74.4296 24.8863L74.8175 24.8122C75.0977 24.7586 75.3925 24.7815 75.6968 24.7717C75.7919 24.7686 75.9232 24.7192 76.0211 24.7021C76.1784 24.6748 76.3762 24.6849 76.5137 24.6475C76.5937 24.6257 77.3644 24.5031 77.209 24.5059L78.8861 24.4745C78.9393 24.4648 79.0776 24.3913 79.1374 24.3907L80.4924 24.3716L80.9156 24.2927C81.2099 24.2381 81.5171 24.2951 81.801 24.2502C81.9766 24.2224 82.1164 24.1999 82.294 24.1932L82.699 24.1778C82.7414 24.1763 82.8618 24.1106 82.9051 24.0922L84.2996 24.0692C83.9407 24.0753 85.3194 23.896 84.9624 23.9002L86.8858 23.876L87.1475 23.7988L88.0306 23.7828C88.1158 23.7812 88.2424 23.7227 88.322 23.7167L89.1075 23.6576C89.2723 23.6452 89.4125 23.5963 89.582 23.5886C89.7379 23.5815 89.8688 23.5466 90.019 23.5183C90.2793 23.4691 90.5709 23.5036 90.8525 23.4889C90.9967 23.4814 91.1346 23.4416 91.2866 23.4191C91.4575 23.3937 91.7604 23.3887 91.9233 23.3791C92.0863 23.3696 91.7635 23.3136 92.5476 23.2944C92.6866 23.2912 92.8061 23.2375 92.9422 23.2242L93.5298 23.1651C93.4074 23.1774 94.536 23.0145 94.3905 23.025L95.0789 22.9762C95.281 22.9618 95.448 22.8979 95.6557 22.9012C95.8437 22.9046 95.999 22.8489 96.1798 22.8341L96.8663 22.7762L97.3042 22.7034L97.6488 22.6415C97.8814 22.5996 98.1381 22.6101 98.391 22.5974C98.949 22.5697 98.7967 22.4646 99.7084 22.4346L100.417 22.4113C100.571 22.4061 100.669 22.3568 100.821 22.2881C100.972 22.2194 101.254 22.2683 101.44 22.2419L101.961 22.1685C102.126 22.1455 102.256 22.1293 102.41 22.0842C102.856 21.9528 103.101 22.0585 103.642 21.974C103.792 21.9506 103.93 21.9325 104.085 21.9205L104.695 21.8739L105.128 21.832L105.933 21.742C106.149 21.7179 106.366 21.7068 106.589 21.6933C106.824 21.6793 107.081 21.6041 107.311 21.6045C107.661 21.6052 107.992 21.6087 108.326 21.5252C108.518 21.4771 108.745 21.4044 108.93 21.403L109.388 21.4L110.206 21.3466L110.545 21.3444L111.33 21.3045C111.449 21.2984 111.767 21.2274 112.032 21.1955L112.892 21.091L113.781 21.0644C114.052 21.0561 114.318 20.952 114.586 20.9384L115.434 20.8955L116.316 20.8578L116.822 20.7999C117.362 20.7385 117.697 20.8195 118.112 20.7868L118.684 20.7411L119.898 20.7061C120.131 20.6993 120.337 20.6945 120.571 20.7045C121.23 20.7338 121.881 20.7294 122.541 20.6994C122.755 20.6898 122.95 20.6614 123.161 20.6965L123.727 20.7915L125.086 20.8244L125.324 20.8407C125.686 20.8653 126.026 20.8881 126.36 20.9494L126.361 20.9504ZM3.27432 31.6288C3.39789 31.6992 3.53481 31.6421 3.66004 31.6178L4.00417 31.5511C4.11951 31.5286 4.23149 31.4788 4.34925 31.4819C4.46041 31.485 4.60135 31.5352 4.67575 31.5274L5.02184 31.4919L5.35088 31.4141C5.79337 31.3096 6.26052 31.4808 6.7096 31.3773L7.08289 31.2912C7.55598 31.1823 8.12163 31.1824 8.5783 31.3017L8.91385 31.3895L9.20403 31.4119L9.40336 31.4571L10.3511 31.4852C10.3624 31.5227 10.3715 31.5535 10.3715 31.5535C10.3715 31.5535 10.4364 31.5336 10.4491 31.5274L10.5329 31.4848C10.5512 31.4756 10.5961 31.554 10.614 31.5433L10.7189 31.4815C10.7386 31.4699 10.8001 31.5703 10.8552 31.5702L14.974 31.5625L16.5174 31.5599C16.6031 31.565 16.6196 31.5717 16.503 31.6239C16.4903 31.6345 19.0262 31.4972 18.8205 31.5583L19.1123 31.4715C19.2573 31.4284 20.3374 31.4817 20.5531 31.4696C20.9991 31.445 21.4291 31.4512 21.8746 31.4506L22.2519 31.4498L23.5598 31.4409C23.6013 31.4625 23.7249 31.5219 23.7682 31.5381L24.5953 31.5473C24.5492 31.5917 24.5178 31.622 24.522 31.6177L24.985 31.6258C24.992 31.3847 24.9242 31.2207 24.9091 30.9975L24.8623 30.3094C24.8525 30.1636 24.7962 30.0444 24.7912 29.9001C24.7755 29.467 24.6468 29.2084 24.7137 29.0037L24.7862 28.7812L24.7123 28.6154L24.7797 28.4395C24.7919 28.4073 24.7027 28.3281 24.7003 28.2881C24.6904 28.1149 24.6888 27.8065 24.709 27.6096C24.721 27.4921 24.7926 27.3072 24.7411 27.2308L24.5672 26.9728C24.5095 26.8873 24.304 26.8261 24.1895 26.7893C23.6748 26.624 23.5622 26.7947 23.4567 26.8045L22.966 26.8495C22.8022 26.8643 22.6893 26.9483 22.5661 26.834C22.363 27.0005 22.2115 26.8695 21.8745 26.9483C21.6782 26.994 21.5389 27.0236 21.3401 27.0198C21.1946 27.0167 21.0525 27.082 20.915 27.0886L19.901 27.1372C19.7786 27.1432 19.5843 27.2476 19.4881 27.1983C19.324 27.114 19.2299 27.1469 19.0839 27.1545C18.9973 27.159 18.896 27.1814 18.7783 27.186L17.3236 27.2433C17.259 27.2458 17.1203 27.3208 17.0543 27.3209L16.3926 27.3215C16.3003 27.3217 16.1516 27.3885 16.0645 27.3944L15.3346 27.4438C15.2621 27.4488 15.1157 27.517 15.0427 27.5171C14.7262 27.5193 14.4389 27.508 14.1399 27.5428C13.9869 27.5605 13.8354 27.6316 13.6639 27.6161C13.5541 27.6063 13.3923 27.6995 13.2911 27.7007L11.7929 27.7235C11.7506 27.7361 11.6315 27.7893 11.5897 27.8096L9.23759 27.83L8.87043 27.9213C8.74757 27.9519 8.63031 27.9575 8.51827 27.9823L8.04611 28.085C7.77684 28.1433 7.35851 28.101 7.09245 28.1213C7.04347 28.1253 6.91883 28.1992 6.87503 28.2003L5.86198 28.219C5.52613 28.4046 5.14237 28.2443 4.68339 28.3416C4.44895 28.3912 4.29529 28.3396 4.06644 28.3608L3.54611 28.4092C3.4524 28.4181 3.30969 28.416 3.24476 28.4451L2.77144 28.6565C2.50184 28.7769 2.19048 28.9615 2.03233 29.2097L1.84134 29.5104C1.76673 29.6275 1.79148 29.9412 1.82994 30.0749L1.91873 30.3808C1.93963 30.4534 1.9862 30.6323 2.0358 30.6957C2.23751 30.9532 2.46362 31.1697 2.74659 31.3307L3.27339 31.6302L3.27432 31.6288ZM25.2789 36.2526C25.4126 36.2532 25.5534 36.2274 25.647 36.194C25.4767 36.0486 25.4505 35.9553 25.4619 35.7647C25.4718 35.5953 25.399 35.4458 25.3882 35.2802L25.3457 34.6158C25.3525 34.7226 25.2169 33.9038 25.2083 33.8726C25.1712 33.7336 25.1361 33.5946 25.0924 33.4585L24.8761 32.7877C24.4592 32.7603 24.0251 32.8335 23.6185 32.7565C23.3127 32.6985 23.0937 32.711 22.7914 32.7478C22.1393 32.8273 21.4675 32.7836 20.7954 32.7881L19.8064 32.7947C19.7414 32.7949 19.5886 32.7288 19.5453 32.7222C19.1977 32.9333 19.211 32.5622 18.8992 32.7877C18.8898 32.7718 18.8891 32.6843 18.8675 32.6968L18.7612 32.7582C18.7235 32.7799 18.6179 32.7123 18.5684 32.7124L17.1748 32.7109L16.9258 32.801C16.8049 32.8446 15.3795 32.756 15.1836 32.7815C14.3295 32.8937 13.9353 32.7098 13.8223 32.712L12.4348 32.7369C12.3552 32.7385 12.2089 32.8283 12.1336 32.8165C11.2897 32.6789 11.455 32.8869 10.8091 32.7989C10.7926 32.7888 10.7284 32.7206 10.7081 32.7212L10.0111 32.7348L10.2086 32.8099C9.92275 32.8231 9.66234 32.841 9.40884 32.7959C9.30613 32.7778 9.17977 32.7223 9.06531 32.7187C8.92118 32.7147 8.7664 32.7902 8.63644 32.8054C8.36429 32.8368 8.09155 32.8206 7.83908 32.813L7.99245 32.74L7.73529 32.7406L7.09523 32.7455L6.71187 32.7545L6.52249 32.7362L5.41052 32.7523L5.15868 32.813L4.61147 32.8446C4.59263 32.8456 4.53344 32.9093 4.51599 32.9021L4.43113 32.8667C4.19405 32.9909 3.76464 32.8476 3.63477 33.0996C3.49364 33.3742 3.69888 33.7303 3.8341 33.9523L4.03268 34.2786C4.06861 34.3382 4.12215 34.4757 4.17499 34.5117L4.48445 34.7227L4.81613 34.9712C5.16622 35.2336 5.57122 35.4136 5.9673 35.6066L6.27898 35.7584C6.53266 35.882 6.80893 35.9997 7.03298 36.1421C7.32448 36.3248 8.23501 36.3737 8.46905 36.1527L8.69087 35.9434C8.72799 35.9081 8.83467 35.8083 8.90014 35.8081L9.97728 35.8047C10.0889 35.8044 10.2525 35.6726 10.3508 35.6147L11.8236 35.6194L12.0904 35.7068C12.187 35.7384 12.3491 35.7674 12.4659 35.7738L13.3496 35.8208C13.4725 35.8273 13.6097 35.8905 13.727 35.8926C13.8514 35.8952 14.0058 35.8876 14.0864 35.9163C14.6332 36.1109 14.3223 35.8749 14.8823 36.0507C14.9836 36.0827 15.1519 36.1588 15.2442 36.162L16.3563 36.1988C16.4976 36.2033 16.6304 36.3642 16.7537 36.157C16.7802 36.2137 16.7832 36.2498 16.8039 36.244L16.9277 36.2076C17.3607 36.0795 17.5856 36.386 17.8155 36.219C18.0313 36.0626 18.511 36.3497 18.6339 36.3499L19.9838 36.3554C20.0275 36.3404 20.1541 36.2867 20.2068 36.2635L24.1395 36.2591C24.1937 36.259 24.2589 36.3454 24.2782 36.3338L24.3544 36.2894C24.6066 36.4072 24.5912 36.2484 25.2789 36.2526Z" fill="white"/>
</svg>
