<svg width="32" height="32" viewBox="0 0 32 32" fill="none" xmlns="http://www.w3.org/2000/svg">
<rect width="32" height="32" rx="16" fill="url(#paint0_radial_7_22)"/>
<path d="M16.0581 10.5516C11.6514 10.6592 7.20665 14.4172 3.28143 17.2958C5.95167 19.9639 10.8805 22.5386 16.3477 22.405C21.8149 22.2714 26.1782 19.6787 29.0524 17.3276C24.5262 13.994 20.4648 10.4439 16.0581 10.5516Z" fill="white"/>
<path d="M16.0581 10.5516C11.6514 10.6592 7.20665 14.4172 3.28143 17.2958C5.95167 19.9639 10.8805 22.5386 16.3477 22.405C21.8149 22.2714 26.1782 19.6787 29.0524 17.3276C24.5262 13.994 20.4648 10.4439 16.0581 10.5516Z" fill="#0044FF" fill-opacity="0.1" style="mix-blend-mode:multiply"/>
<path d="M16.0581 10.5516C11.6514 10.6592 7.20665 14.4172 3.28143 17.2958C5.95167 19.9639 10.8805 22.5386 16.3477 22.405C21.8149 22.2714 26.1782 19.6787 29.0524 17.3276C24.5262 13.994 20.4648 10.4439 16.0581 10.5516Z" stroke="#4A78F7" stroke-width="0.818118"/>
<path d="M16.6968 20.6993C21.4172 20.3448 22.8238 15.5332 22.9026 13.0847C21.3419 12.0263 19.4536 10.6535 16.3217 10.73C13.1897 10.8066 10.7892 12.0262 8.52914 13.7584C8.60241 16.757 11.4584 21.0927 16.6968 20.6993Z" fill="#00A1FF"/>
<path d="M16.6968 20.6993C21.4172 20.3448 22.8238 15.5332 22.9026 13.0847C21.3419 12.0263 19.4536 10.6535 16.3217 10.73C13.1897 10.8066 10.7892 12.0262 8.52914 13.7584C8.60241 16.757 11.4584 21.0927 16.6968 20.6993Z" fill="#0044FF" fill-opacity="0.64" style="mix-blend-mode:plus-lighter"/>
<g clip-path="url(#clip0_7_22)">
<circle cx="16.3644" cy="13.2796" r="4.20109" transform="rotate(-1.39971 16.3644 13.2796)" fill="black"/>
</g>
<ellipse cx="16.8118" cy="12.2451" rx="0.73294" ry="0.709297" transform="rotate(-1.39971 16.8118 12.2451)" fill="white"/>
<path d="M15.9339 10.3211C11.5272 10.4288 7.08573 14.3212 3.16301 17.3023C5.83571 20.0712 10.767 22.7452 16.2342 22.6116C21.7014 22.478 26.0624 19.7936 28.9346 17.3585C24.4052 13.898 20.3406 10.2134 15.9339 10.3211Z" stroke="black" stroke-width="1.05344"/>
<defs>
<radialGradient id="paint0_radial_7_22" cx="0" cy="0" r="1" gradientUnits="userSpaceOnUse" gradientTransform="translate(16 16) rotate(90) scale(16)">
<stop stop-color="#F8AC00"/>
<stop offset="1" stop-color="#FCC047"/>
</radialGradient>
<clipPath id="clip0_7_22">
<rect width="8.40219" height="6.80513" fill="white" transform="translate(12.101 10.7791) rotate(-1.39971)"/>
</clipPath>
</defs>
</svg>
