<svg width="237" height="208" viewBox="0 0 237 208" fill="none" xmlns="http://www.w3.org/2000/svg">
<mask id="path-1-inside-1_640_725" fill="white">
<path d="M236.999 60C236.999 44.087 230.73 28.8258 219.572 17.5736C208.413 6.32141 193.279 1.2014e-06 177.499 0C161.719 -1.2014e-06 146.585 6.32141 135.426 17.5736C124.268 28.8258 117.999 44.087 117.999 60L177.499 60H236.999Z"/>
</mask>
<path d="M236.999 60C236.999 44.087 230.73 28.8258 219.572 17.5736C208.413 6.32141 193.279 1.2014e-06 177.499 0C161.719 -1.2014e-06 146.585 6.32141 135.426 17.5736C124.268 28.8258 117.999 44.087 117.999 60L177.499 60H236.999Z" fill="#141414" stroke="#141414" stroke-width="0.66666" mask="url(#path-1-inside-1_640_725)"/>
<mask id="path-2-inside-2_640_725" fill="white">
<path d="M119 60.0012C119 44.0882 112.731 28.827 101.573 17.5748C90.4144 6.32263 75.2804 0.0012219 59.5 0.0012207C43.7196 0.0012195 28.5856 6.32263 17.4272 17.5748C6.26874 28.827 2.38277e-06 44.0882 0 60.0012L59.5 60.0012H119Z"/>
</mask>
<path d="M119 60.0012C119 44.0882 112.731 28.827 101.573 17.5748C90.4144 6.32263 75.2804 0.0012219 59.5 0.0012207C43.7196 0.0012195 28.5856 6.32263 17.4272 17.5748C6.26874 28.827 2.38277e-06 44.0882 0 60.0012L59.5 60.0012H119Z" fill="#141414" stroke="#141414" stroke-width="0.66666" mask="url(#path-2-inside-2_640_725)"/>
<path d="M0 60.0012H237C237 85.4809 226.268 109.782 207.436 126.945L118.5 208.001L29.5637 126.945C10.7319 109.782 0 85.4809 0 60.0012Z" fill="#141414"/>
</svg>
