<svg width="297" height="985" viewBox="0 0 297 985" fill="none" xmlns="http://www.w3.org/2000/svg">
<g clip-path="url(#clip0_37_11080)">
<path d="M222.057 984.543C219.032 984.368 178.982 984.119 133.057 983.99L49.5568 983.754L49.4752 976.754C49.4302 972.904 49.3176 966.528 49.2253 962.585L49.0571 955.417L36.7788 955.085C25.7525 954.788 24.2021 954.519 21.5751 952.45C13.6611 946.216 11.2609 935.502 15.0728 923.424C16.3174 919.48 17.6131 916.254 17.9522 916.254C18.2913 916.254 19.1296 915.016 19.8149 913.504C20.5002 911.991 22.2975 909.343 23.809 907.619C28.5407 902.223 30.4234 899.888 35.0084 893.731C37.4567 890.444 40.1801 887.079 41.0604 886.254C43.8735 883.618 50.0654 873.185 57.1381 859.164C60.0249 853.442 62.8607 844.211 63.5624 838.254C63.9188 835.229 64.6451 831.179 65.1766 829.254C67.0287 822.546 69.595 777.274 68.3297 773.629C68.115 773.011 66.1658 771.705 63.9982 770.727C61.8306 769.75 60.0572 768.651 60.0572 768.286C60.0572 767.92 57.0196 766.087 53.3071 764.211C45.2023 760.116 40.3479 755.321 39.4475 750.521C38.5251 745.605 39.7669 731.116 41.5487 726C44.0562 718.802 43.5935 716.649 38.8071 713.239C30.6693 707.442 27.8408 704.729 25.8223 700.783C24.0148 697.249 23.864 695.685 24.4528 686.577C24.8168 680.948 25.7766 674.466 26.5858 672.173C29.1442 664.921 28.764 664.026 21.5571 660.33C17.9822 658.496 15.0572 656.379 15.0572 655.625C15.0572 654.871 14.5841 654.254 14.0061 654.254C13.428 654.254 12.2457 652.566 11.3787 650.504C10.0709 647.393 9.93696 644.708 10.5927 634.754C11.0274 628.154 11.481 618.704 11.6005 613.754C11.72 608.804 12.1028 601.154 12.4511 596.754C12.7992 592.354 13.5559 574.579 14.1325 557.254C15.6955 510.29 16.4557 497.845 19.1048 475.845C19.6286 471.495 20.0571 465.787 20.0571 463.16C20.0571 460.533 20.4516 457.342 20.9338 456.069C21.416 454.796 22.1177 450.604 22.4931 446.754C22.8684 442.904 23.6471 437.954 24.2233 435.754C24.7996 433.554 25.4119 429.729 25.5842 427.254C26.2607 417.532 28.0441 401.084 28.5018 400.343C28.7675 399.913 29.655 393.184 30.4739 385.389C31.2929 377.593 32.1857 370.855 32.4582 370.414C32.7307 369.973 31.9808 368.069 30.7921 366.183C29.6033 364.297 28.1641 362.005 27.5939 361.089C26.2928 358.999 22.2475 350.724 20.5863 346.754C14.7378 332.776 12.9865 327.666 12.0184 321.754C11.5681 319.004 10.7077 314.279 10.1064 311.254C8.72191 304.289 6.69517 261.246 7.27514 251.125C7.63609 244.827 8.38524 242.123 11.5704 235.625C19.7116 219.015 26.1407 210.331 32.8725 206.849C34.388 206.066 36.2869 204.155 37.0925 202.603C41.1168 194.851 47.8099 191.086 57.4967 191.127C63.5589 191.153 75.0572 193.978 75.0572 195.443C75.0572 195.889 75.5475 196.254 76.1469 196.254C78.4164 196.254 80.9909 200.791 81.0239 204.849C81.0579 208.906 79.5179 211.263 76.0409 212.481C73.9662 213.207 71.6569 217.769 72.3929 219.686C72.7546 220.629 74.1934 221.254 76.0001 221.254C78.2682 221.254 79.355 220.579 80.4291 218.502C83.7842 212.013 88.6221 210.193 94.4954 213.208L98.4336 215.23L104.069 211.581C109.891 207.811 111.865 205.299 115.721 196.754C118.768 190 118.936 179.64 116.057 175.981C114.957 174.583 114.057 173.103 114.057 172.693C114.057 172.282 112.87 169.428 111.418 166.35C108.868 160.942 104.962 156.254 103.006 156.254C102.484 156.254 102.057 155.916 102.057 155.502C102.057 155.089 99.9833 153.65 97.4484 152.305C92.8614 149.872 92.8422 149.84 93.4274 145.571C93.9072 142.07 93.5696 140.624 91.5906 137.708C90.257 135.743 89.415 133.486 89.7194 132.692C90.0241 131.899 89.9957 130.145 89.6571 128.795C89.1823 126.904 88.1837 126.2 85.2992 125.726C79.9273 124.842 77.0852 123.213 76.4421 120.651C76.1326 119.418 77.0709 114.968 78.5347 110.727C82.1252 100.324 81.8262 99.8109 72.6238 100.589C64.7656 101.253 59.4786 100.153 57.2785 97.3955C55.6689 95.3783 56.6212 90.6383 59.1901 87.8809C61.0634 85.8702 61.0555 85.8076 58.6514 83.5784C57.3097 82.3342 55.9218 80.4022 55.5672 79.2851C55.0226 77.5692 54.0723 77.2539 49.4461 77.2539H43.9697L44.2633 70.0039C44.5464 63.0156 44.6473 62.7539 47.0571 62.7539C49.2344 62.7539 49.5187 62.3666 49.2595 59.7539C48.9715 56.8524 47.964 53.4688 45.8344 48.2539C42.5307 40.1638 38.9246 35.5668 33.0571 31.9657C31.1322 30.7842 28.6848 29.0157 27.6186 28.0357C26.0921 26.6326 23.8601 26.2366 17.1185 26.1728C12.4097 26.1281 6.75713 26.0156 4.55711 25.9227L0.557102 25.7539L0.278551 13.1652L0 0.57653L81.7787 0.278818C126.757 0.115089 168.507 -0.010092 174.557 0.000641905C180.607 0.0112246 210.42 0.0727675 240.807 0.137019L296.057 0.253875V13.2539V26.2539L283.807 26.2599C274.896 26.2645 270.777 26.6732 268.693 27.7599C267.118 28.5815 265.461 29.2537 265.012 29.2537C263.124 29.2537 257.136 34.0592 254.078 38.0299C251.599 41.247 250.374 44.3431 249.13 50.5299C247.167 60.2931 247.394 62.2537 250.49 62.2537C252.568 62.2537 252.867 62.9122 253.784 69.5037C254.339 73.4912 254.601 77.0912 254.366 77.5037C254.131 77.9162 251.603 78.2545 248.748 78.2555C243.959 78.2571 243.138 78.6308 238.136 83.0905C234.605 86.2387 233.123 88.1762 233.886 88.6478C235.987 89.9463 235.122 93.3906 231.952 96.3525C230.243 97.9482 227.993 99.2537 226.952 99.2537C225.91 99.2537 225.057 99.7037 225.057 100.254C225.057 100.804 224.382 101.254 223.557 101.254C222.732 101.254 222.057 101.643 222.057 102.118C222.057 103.568 213.614 104.239 207.63 103.266C200.74 102.144 199.494 102.562 198.139 106.449C196.981 109.772 197.001 109.825 201.763 116.08C203.575 118.46 205.057 121.287 205.057 122.362C205.057 125.747 202.392 130.88 198.816 134.38C193.073 140.001 185.508 146.825 183.32 148.357C182.185 149.152 180.219 151.592 178.951 153.778C177.684 155.965 176.341 157.979 175.968 158.254C174.62 159.247 171.057 166.355 171.057 168.052C171.057 169.008 169.932 171.445 168.557 173.469C165.623 177.786 165.363 182.354 167.599 190.286C168.447 193.293 169.559 197.376 170.071 199.358C170.583 201.34 172.213 205.297 173.694 208.151C176.551 213.658 176.759 213.727 184.225 211.638C185.179 211.371 187.461 212.547 189.554 214.385C192.951 217.368 193.448 217.514 196.457 216.426C204.545 213.502 212.037 216.556 215.74 224.286C216.39 225.643 216.952 226.191 216.99 225.504C217.027 224.816 218.154 224.254 219.495 224.254C222.639 224.254 234.013 221.63 241.057 219.281C251.608 215.761 253.975 214.387 255.411 210.949C257.282 206.471 261.383 203.822 264.151 205.304C265.777 206.174 266.6 206.073 267.969 204.833C268.929 203.965 270.032 203.254 270.42 203.254C270.808 203.254 272.444 201.904 274.057 200.254C277.948 196.274 279.461 196.356 278.645 200.504C278.294 202.291 277.875 204.429 277.715 205.254C277.554 206.079 276.831 208.516 276.108 210.67C274.951 214.113 274.99 214.731 276.425 215.78C277.323 216.437 278.057 217.501 278.057 218.145C278.057 218.789 278.732 219.575 279.557 219.892C280.382 220.209 281.057 221.057 281.057 221.777C281.057 222.498 281.493 223.237 282.026 223.42C282.559 223.604 285.259 226.434 288.026 229.71C291.682 234.039 293.053 236.499 293.042 238.71C293.027 241.692 291.32 247.538 289.747 249.992C288.639 251.72 286.404 260.574 284.996 268.812C284.343 272.63 282.965 277.526 281.933 279.691C280.901 281.857 280.057 284.22 280.057 284.941C280.057 285.663 279.616 286.254 279.076 286.254C278.537 286.254 277.8 287.491 277.438 289.004C277.077 290.516 276.431 292.205 276.002 292.756C275.327 293.625 273.289 300.682 270.085 313.254C268.187 320.699 265.023 331.049 262.596 337.754C260.354 343.946 260.177 345.381 261.059 350.187C261.608 353.176 262.06 357.676 262.063 360.187C262.066 362.699 262.503 366.329 263.034 368.254C264.122 372.194 265.719 386.13 267.046 403.254C267.536 409.579 268.151 416.329 268.413 418.254C268.676 420.179 269.39 426.704 270.001 432.754C270.612 438.804 271.544 447.354 272.073 451.754C273.119 460.469 273.61 473.298 275.072 530.254C276.32 578.832 277.786 613.605 279.034 624.254C281.187 642.613 281.38 646.254 280.201 646.254C279.572 646.254 278.251 647.041 277.266 648.004C276.281 648.966 273.244 651.547 270.516 653.739C267.789 655.93 264.683 658.52 263.614 659.493C262.545 660.466 259.674 662.229 257.234 663.41L252.796 665.558L253.394 671.961C253.744 675.704 253.421 681.768 252.62 686.559C251.865 691.066 250.955 696.869 250.598 699.454C250.241 702.04 248.421 707.035 246.553 710.555C243.201 716.873 243.159 717.108 243.321 728.854C243.509 742.484 241.743 749.493 236.99 753.979C235.442 755.44 234.394 756.989 234.661 757.422C234.928 757.854 234.665 759.991 234.079 762.171C232.962 766.319 228.392 771.699 221.448 777.039C217.711 779.913 217.278 780.721 216.66 785.976C216.286 789.154 215.999 801.654 216.021 813.754C216.074 842.204 217.288 850.022 223.589 862.478C226.17 867.579 228.906 872.464 229.669 873.332C230.433 874.201 231.057 875.206 231.057 875.567C231.057 876.813 237.454 886.765 240.819 890.754C242.675 892.954 246.433 899.222 249.17 904.684C253.856 914.034 255.279 915.684 260.807 918.186C262.045 918.746 263.057 919.665 263.057 920.229C263.057 920.792 263.732 921.254 264.557 921.254C265.382 921.254 266.057 921.929 266.057 922.754C266.057 923.579 266.576 924.254 267.211 924.254C268.629 924.254 274.927 931.001 277.307 935.07C281.194 941.716 278.496 950.681 271.565 954.142C268.105 955.871 265.513 956.254 257.279 956.254C251.747 956.254 246.587 956.497 245.813 956.794C244.667 957.234 244.49 959.836 244.862 970.794L245.318 984.254H237.769C233.618 984.254 229.621 984.39 228.889 984.557C228.156 984.723 225.082 984.718 222.057 984.543ZM238.61 980.033C239.006 979.637 239.545 974.296 239.808 968.163C240.179 959.496 239.985 956.828 238.939 956.181C238.198 955.723 196.297 955.327 145.825 955.3L54.0568 955.25V967.688V980.127L57.3068 980.449C64.0695 981.119 237.922 980.721 238.61 980.033ZM67.581 941.245C67.8418 936.025 68.705 928.379 69.4992 924.254C71.7085 912.779 72.4023 903.254 71.029 903.254C70.395 903.254 68.1304 904.491 65.9965 906.004C62.4956 908.485 59.0668 914.173 59.051 917.524C59.0435 919.103 53.6594 935.907 52.023 939.459C51.0616 941.545 51.0423 942.805 51.9383 944.968C52.9002 947.29 54.1712 948.051 59.3283 949.392C62.7539 950.283 65.9055 950.95 66.3318 950.874C66.7581 950.799 67.3203 946.466 67.581 941.245ZM269.984 947.619C273.158 943.584 272.751 938.114 268.953 933.789C267.246 931.845 265.221 930.254 264.453 930.254C263.685 930.254 263.057 929.815 263.057 929.28C263.057 928.744 261.707 927.607 260.057 926.754C257.089 925.219 257.057 925.231 257.057 927.847C257.057 929.301 258.04 933.355 259.241 936.855C261.712 944.056 261.162 945.927 257.821 941.685C255.478 938.711 254.36 936.072 251.005 925.595C249.066 919.541 248.238 917.745 244.614 911.745C240.351 904.686 235.789 903.698 216.789 905.719L209.021 906.545L209.636 910.15C209.975 912.132 210.883 916.594 211.654 920.066C212.426 923.538 213.057 929.677 213.057 933.709C213.057 939.471 213.395 941.17 214.639 941.647C218.014 942.942 224.377 942.145 230.191 939.697C237.513 936.616 240.228 936.997 245.972 941.913C255.565 950.125 266.053 952.617 269.984 947.619ZM35.8071 943.26C38.7849 937.852 40.8767 936.552 43.9533 938.198C45.0379 938.779 46.2924 939.249 46.741 939.242C47.9712 939.224 50.7745 932.45 52.115 926.254C52.7695 923.229 53.6651 919.629 54.1053 918.254C54.5455 916.879 55.4374 913.38 56.0872 910.478L57.2687 905.202L53.9127 902.244C50.0978 898.881 46.1276 898.413 43.7454 901.045C42.8537 902.031 40.971 905.968 39.5617 909.796C38.1524 913.623 36.5982 917.654 36.1079 918.754C31.9449 928.095 27.7086 937.208 26.5067 939.408C24.5009 943.08 24.6451 947 26.8068 947.564C31.8268 948.876 33.0319 948.3 35.8071 943.26ZM204.58 944.133C208.48 941.502 209.057 940.653 209.057 937.548C209.057 929.917 203.72 902.144 201.746 899.504C200.816 898.259 186.995 897.649 185.842 898.802C185.54 899.104 185.651 901.016 186.087 903.052C187.057 907.575 190.288 925.985 190.603 928.775C190.728 929.887 190.454 933.178 189.994 936.088C189.165 941.333 190.138 945.713 192.537 947.525C194.3 948.858 199.928 947.273 204.58 944.133ZM107.057 943.118C108.996 942.253 111.352 942.396 117.557 943.758C132.11 946.952 134.096 946.888 138.058 943.102C141.275 940.028 141.527 939.344 141.541 933.636C141.556 928.291 141.229 927.207 139.057 925.377C135.565 922.434 132.531 921.815 128.924 923.309C125.926 924.551 125.712 924.458 121.965 920.276C119.838 917.903 117.834 915.127 117.51 914.108C117.187 913.088 116.502 912.254 115.989 912.254C115.476 912.254 115.057 907.833 115.057 902.414C115.057 892.841 114.988 892.544 112.51 891.414C111.109 890.776 107.314 890.254 104.077 890.254C99.0615 890.254 98.0973 890.551 97.554 892.262C97.2033 893.367 97.689 900.117 98.6334 907.262C100.047 917.961 100.148 921.478 99.2034 927.196C97.7871 935.772 97.7464 941.307 99.0742 944.799C100.048 947.359 100.188 947.405 102.324 945.854C103.552 944.963 105.682 943.732 107.057 943.118ZM88.477 938.004C88.7291 936.766 89.2298 932.829 89.5895 929.254C89.9493 925.679 90.5746 919.604 90.9791 915.754C91.3837 911.904 91.6792 905.604 91.6357 901.754L91.5567 894.754L88.5567 894.975C85.5817 895.195 81.1656 899.259 79.0173 903.754C78.4916 904.854 77.5085 906.528 76.8326 907.475C75.8385 908.867 75.956 910.109 77.448 913.975C78.4623 916.603 79.6126 922.422 80.0042 926.906C80.6436 934.226 81.014 935.319 83.6365 937.624C87.2453 940.796 87.8978 940.847 88.477 938.004ZM185.759 931.004C185.452 928.666 184.474 922.704 183.584 917.754C182.695 912.804 181.7 902.195 181.373 894.18L180.779 879.605L176.911 877.93C171.926 875.77 169.407 875.807 168.821 878.047C168.563 879.034 168.263 883.872 168.155 888.797C168.047 893.723 167.498 899.554 166.934 901.754C165.555 907.137 162.858 913.254 161.864 913.254C161.42 913.254 161.057 913.866 161.057 914.614C161.057 915.362 159.875 916.824 158.431 917.864C156.987 918.903 154.783 920.74 153.534 921.946C151.323 924.081 151.305 924.254 152.853 928.558L154.442 932.978L165.999 932.866C173.519 932.793 178.256 933.18 179.557 933.973C180.657 934.644 182.628 935.207 183.937 935.223C186.161 935.254 186.28 934.976 185.759 931.004ZM160.771 897.661L163.735 897.068L163.423 868.411L163.112 839.754L160.528 837.504C159.107 836.266 156.647 835.254 155.06 835.254C153.473 835.254 151.896 834.804 151.556 834.254C151.217 833.704 147.139 833.254 142.496 833.254H134.054L130.196 837.229L126.338 841.205L125.729 864.979C125.394 878.055 124.828 889.997 124.469 891.517L123.818 894.28L130.078 890.742C141.775 884.13 151.182 885.741 154.97 895.004C156.412 898.531 156.415 898.532 160.771 897.661ZM77.0414 885.12C77.049 883.462 76.4089 882.301 75.3068 881.984C74.3443 881.707 72.7693 881.157 71.8068 880.76C70.3107 880.144 70.0568 880.624 70.0568 884.063C70.0568 887.56 70.417 888.209 72.8068 889.021C75.9784 890.097 77.0181 889.14 77.0414 885.12ZM66.0568 883.09C66.0568 879.75 63.1958 872.254 61.921 872.254C60.7391 872.254 58.0568 876.52 58.0568 878.4C58.0568 880.592 62.8068 886.254 64.6457 886.254C65.5632 886.254 66.0568 885.147 66.0568 883.09ZM222.807 885.606C225.694 885.259 228.057 884.556 228.057 884.043C228.057 881.675 224.923 880.254 219.701 880.254C213.477 880.254 212.379 878.855 214.773 873.977C215.763 871.96 215.878 870.268 215.196 867.794C214.678 865.921 214.548 864.074 214.906 863.689C216.327 862.16 207.442 864.507 205.82 866.089C204.173 867.695 204.244 868.259 207.191 877.018L210.299 886.254L213.928 886.246C215.924 886.243 219.919 885.953 222.807 885.606ZM197.871 875.023C198.087 873.151 197.394 871.5 195.667 869.773C192.788 866.894 189.282 866.569 184.997 868.785C182.117 870.274 182.078 870.393 183.541 873.224C185.837 877.664 188.353 878.982 193.275 878.325C197.026 877.825 197.596 877.415 197.871 875.023ZM90.8708 876.763C91.3439 876.305 91.422 870.272 90.9592 869.916C90.7377 869.746 88.4191 869.797 85.8066 870.031L81.0566 870.455V874.468V878.481L85.8066 877.774C88.4191 877.385 90.6981 876.93 90.8708 876.763ZM76.0568 868.181C76.0568 862.988 75.8088 862.155 74.346 862.437C73.4051 862.618 71.9893 864.463 71.1999 866.537C69.8803 870.005 69.9174 870.463 71.6607 872.222C75.0637 875.655 76.0568 874.742 76.0568 868.181ZM115.445 867.935C116.445 864.206 116.12 861.459 114.485 859.825C112.586 857.926 105.1 857.719 102.894 859.504C100.337 861.573 98.0568 865.558 98.0568 867.957C98.0568 870.03 98.4068 870.172 102.307 869.692C104.644 869.404 107.907 869.569 109.557 870.058C113.339 871.178 114.707 870.685 115.445 867.935ZM178.968 857.848C180.881 855.812 181.048 855.105 180.054 853.248C179.007 851.293 178.371 851.129 174.218 851.751C171.654 852.134 169.219 852.656 168.807 852.91C166.184 854.524 170.673 860.157 174.632 860.22C175.774 860.239 177.725 859.171 178.968 857.848ZM172.869 857.571C173.591 857.282 174.454 857.317 174.786 857.65C175.118 857.982 174.528 858.218 173.473 858.175C172.308 858.127 172.072 857.89 172.869 857.571ZM77.7234 849.748C78.4088 846.451 78.9892 842.966 79.0132 842.004C79.0642 839.953 76.3582 839.704 72.6038 841.414C70.2689 842.478 70.0568 843.097 70.0568 848.841C70.0568 853.964 70.3761 855.192 71.8068 855.575C75.6256 856.596 76.4734 855.761 77.7234 849.748ZM190.696 851.202C191.428 848.755 192.033 845.34 192.042 843.612C192.053 841.043 191.574 840.349 189.412 839.807C187.958 839.442 186.379 839.532 185.903 840.007C184.413 841.498 184.658 854.387 186.196 855.36C188.39 856.749 189.286 855.921 190.696 851.202ZM90.3618 852.315C91.3167 850.698 92.9887 849.093 94.0774 848.747C95.1661 848.402 96.0568 847.483 96.0568 846.705C96.0568 844.507 91.5804 843.913 86.8497 845.484C82.7962 846.83 82.5396 847.142 82.2493 851.081C81.9454 855.207 81.9794 855.254 85.2837 855.254C87.921 855.254 88.9916 854.634 90.3618 852.315ZM201.503 853.341C201.813 852.839 203.916 852.115 206.177 851.733L210.286 851.039L209.61 845.896C209.238 843.068 208.599 840.414 208.191 840C207.782 839.585 205.086 839.947 202.199 840.804L196.951 842.363L197.663 847.058C198.054 849.641 198.378 852.316 198.382 853.004C198.39 854.448 200.667 854.693 201.503 853.341ZM114.492 849.279C115.903 848.742 117.057 847.633 117.057 846.814C117.057 844.553 113.756 843.254 108.014 843.254C102.87 843.254 102.844 843.239 103.526 840.504C104.338 837.25 106.824 834.254 108.712 834.254C110.785 834.254 110.303 830.467 108.142 829.781C105.082 828.81 101.297 830.231 100.665 832.588C99.7065 836.161 99.9793 842.037 101.3 846.269C102.518 850.172 102.64 850.254 107.235 850.254C109.815 850.254 113.081 849.815 114.492 849.279ZM176.057 838.114V829.975L170.883 830.588C168.038 830.925 165.355 831.555 164.922 831.988C163.581 833.329 166.438 837.637 169.065 838.234C170.652 838.595 172.222 840.155 173.389 842.527C174.397 844.577 175.409 846.254 175.639 846.254C175.869 846.254 176.057 842.591 176.057 838.114ZM77.5993 828.421C77.9515 825.854 78.674 822.036 79.205 819.936C79.8585 817.352 79.8049 814.357 79.0395 810.669C78.3234 807.22 78.193 802.566 78.6841 797.987C79.6068 789.387 79.2933 769.059 78.002 753.754C77.4916 747.704 77.0423 737.804 77.0036 731.754C76.9651 725.704 76.4958 717.379 75.9612 713.254C75.4266 709.129 74.8817 694.279 74.7502 680.254C74.571 661.13 74.1751 654.153 73.1673 652.351C72.1413 650.517 71.8473 644.485 71.9246 626.851C72.0383 600.926 72.6422 591.654 74.6112 585.61C75.4304 583.095 76.0622 575.696 76.2182 566.789C76.3596 558.717 76.774 551.929 77.1389 551.703C78.735 550.717 79.1627 568.555 78.5166 609.166C77.9873 642.43 78.1204 654.293 79.0783 659.254C79.7686 662.829 80.4271 674.529 80.5416 685.254C80.672 697.484 81.1905 705.831 81.9321 707.644C82.5889 709.25 83.0708 714.806 83.0163 720.144C82.8028 741.071 84.605 813.138 85.3605 813.892C85.8025 814.333 89.2198 814.867 92.9543 815.078L99.7444 815.462L100.784 806.608C101.355 801.738 101.9 791.454 101.995 783.754C102.089 776.054 102.828 763.229 103.637 755.254C105.577 736.117 105.911 732.327 106.548 722.254C107.123 713.157 107.408 710.063 109.034 695.254C109.607 690.029 110.29 683.729 110.551 681.254C110.811 678.779 111.264 666.854 111.558 654.754C111.852 642.654 112.488 628.479 112.972 623.254C113.456 618.029 113.948 612.179 114.065 610.254C114.181 608.329 114.415 605.854 114.584 604.754C114.752 603.654 114.928 595.865 114.974 587.445C115.028 577.514 115.408 572.353 116.057 572.754C117.297 573.52 117.358 591.889 116.157 602.754C115.671 607.154 115.581 616.604 115.956 623.754C116.332 630.904 116.279 640.904 115.84 645.977C115.399 651.049 114.881 659.824 114.687 665.477C114.494 671.129 113.76 682.954 113.057 691.754C112.354 700.554 111.799 708.654 111.824 709.754C111.851 710.854 111.465 716.929 110.969 723.254C110.474 729.579 109.829 748.852 109.536 766.083C109.243 783.315 108.962 797.715 108.912 798.083C108.498 801.101 109.168 801.463 113.807 800.734C116.419 800.324 119.119 799.972 119.807 799.954C120.727 799.927 121.057 797.074 121.057 789.111C121.057 774.116 121.817 756.978 123.126 742.456C123.735 735.693 123.982 729.501 123.673 728.697C123.365 727.892 123.643 724.876 124.29 721.994C125.07 718.526 125.525 703.228 125.637 676.754C125.729 654.754 126.083 635.179 126.423 633.254C127.949 624.616 128.989 601.507 129.021 575.504C129.044 556.72 129.403 547.254 130.092 547.254C130.763 547.254 130.714 546.481 129.952 545.058C128.694 542.707 128.233 519.257 128.973 495.254C129.693 471.928 126.225 444.372 122.716 445.53C122.023 445.759 121.289 449.501 120.892 454.833C120.526 459.74 119.712 466.454 119.083 469.754C118.454 473.054 117.68 477.554 117.363 479.754C117.046 481.954 116.424 484.218 115.98 484.786C113.449 488.025 112.166 518.001 114.16 527.301C114.879 530.65 114.923 532.788 114.287 533.423C110.536 537.175 108.894 493.448 112.084 474.754C112.661 471.372 112.82 464.464 112.448 458.924C111.893 450.659 111.572 449.31 110.434 450.448C108.301 452.581 107.126 460.232 105.629 481.754C103.039 518.982 99.7327 526.403 98.7704 497.146C98.4428 487.187 97.9157 478.78 97.599 478.463C96.0093 476.873 94.8604 481.179 93.4979 493.834C91.0276 516.776 90.1726 527.883 89.5005 545.754C89.149 555.104 88.8366 563.204 88.8064 563.754C88.6247 567.072 90.3315 600.887 90.712 601.504C90.9663 601.916 90.5854 602.261 89.8656 602.269C88.9942 602.28 88.9174 602.53 89.6358 603.019C90.2438 603.433 90.8107 607.683 90.9341 612.754C91.2126 624.203 91.7782 631.021 93.1586 639.569C93.7639 643.317 94.0184 646.625 93.7243 646.919C92.3942 648.249 91.0548 645.769 91.038 641.945C91.0266 639.64 90.1231 630.329 89.0275 621.254C86.1483 597.405 85.0091 575.994 85.1969 549.254C85.2876 536.329 85.2638 520.579 85.1432 514.254C85.0231 507.929 85.4116 497.804 86.007 491.754C86.6195 485.528 86.801 475.428 86.4253 468.481C85.7759 456.476 85.7255 456.269 84.1025 458.981C83.1901 460.506 81.4019 465.958 80.1287 471.097C78.1288 479.17 77.7108 484.202 77.0549 508.097C76.6206 523.925 75.8069 537.251 75.1527 539.254C74.5239 541.179 73.7237 552.316 73.3744 564.004C72.9029 579.78 72.4233 585.254 71.5123 585.254C69.8148 585.254 68.628 555.983 69.4952 535.511C69.8622 526.844 70.3598 510.304 70.6006 498.754C70.9935 479.912 72.0569 463.671 73.6943 451.504C74.3524 446.614 73.4513 446.227 70.4091 450.093C65.6055 456.197 65.015 461.125 63.7979 505.254C63.1684 528.079 62.6797 549.454 62.712 552.754C63.3446 617.396 63.9942 640.775 65.4209 650.254C66.2902 656.029 67.7199 674.704 68.5979 691.754C70.7489 733.521 71.6866 746.034 73.5069 757.254C75.8637 771.781 75.3668 806.996 72.4715 830.626L71.752 836.499L74.3553 834.793C76.317 833.508 77.1169 831.938 77.5993 828.421ZM93.0568 833.347C96.0889 832.769 96.7376 832.113 97.9092 828.443C98.9797 825.089 99.0063 823.898 98.0366 822.73C96.4603 820.83 94.3834 820.87 87.7087 822.925C82.3786 824.566 82.2707 824.675 81.674 829.029C81.3399 831.466 81.2976 833.835 81.5799 834.291C82.0696 835.084 85.3686 834.812 93.0568 833.347ZM207.386 833.303C207.843 832.858 208.103 826.478 207.964 819.124C207.826 811.77 207.699 803.729 207.683 801.254C207.623 791.843 209.121 752.146 210.06 738.254C210.6 730.279 211.758 711.604 212.635 696.754C213.511 681.904 214.405 667.504 214.62 664.754C215.229 656.983 216.036 642.574 217.082 620.754C217.61 609.754 218.229 599.629 218.458 598.254C220.663 585.003 220.746 571.381 218.651 566.254C217 562.211 219.502 510.827 221.987 497.754C223.185 491.45 223.338 475.545 222.207 474.846C221.739 474.558 221.059 469.918 220.696 464.537C219.969 453.783 217.648 442.379 215.256 437.811C214.151 435.699 214.044 434.758 214.877 434.48C216.566 433.917 213.67 431.252 211.378 431.26C210.376 431.263 208.327 431.908 206.824 432.692C205.187 433.545 203.854 433.735 203.502 433.165C202.954 432.278 191.543 432.916 189.81 433.931C189.399 434.171 189.08 440.529 189.1 448.061C189.134 460.624 187.566 483.175 185.091 505.754C184.549 510.704 184.203 517.454 184.324 520.754C184.796 533.666 184.032 553.254 183.057 553.254C180.828 553.254 182.656 492.203 185.123 484.254C186.852 478.68 187.079 457.813 185.525 447.254C184.756 442.029 184.111 437.416 184.092 437.004C184.073 436.591 185.069 436.209 186.307 436.154C188.453 436.059 188.441 436.02 186.057 435.315C184.682 434.909 183.681 434.019 183.833 433.337C183.991 432.625 183.353 432.241 182.333 432.436C181.356 432.622 180.413 433.782 180.237 435.014C180.062 436.246 179.219 437.254 178.365 437.254C177.098 437.254 177.041 436.977 178.057 435.754C178.954 434.673 178.979 434.254 178.148 434.254C177.513 434.254 176.751 434.888 176.453 435.663C175.613 437.853 171.287 438.486 168.262 436.862C166.774 436.064 164.882 435.153 164.057 434.838C163.232 434.524 161.882 433.836 161.057 433.31C160.232 432.785 157.411 432.078 154.788 431.74C151.784 431.353 150.262 430.731 150.677 430.06C151.06 429.44 150.754 429.201 149.946 429.489C149.182 429.761 147.818 429.604 146.914 429.141C145.587 428.46 145.147 428.959 144.627 431.733C144.272 433.622 142.874 436.039 141.52 437.104C139.037 439.057 138.054 440.991 140.227 439.649C141.049 439.141 141.168 439.494 140.628 440.84C140.206 441.892 139.588 444.554 139.256 446.754C138.658 450.717 138.646 450.726 138.014 447.754C137.391 444.822 137.348 444.862 136.098 449.504C135.395 452.116 134.396 454.254 133.879 454.254C133.362 454.254 133.266 454.782 133.665 455.428C134.064 456.075 134.328 459.337 134.251 462.678C134.152 467.012 134.37 468.18 135.014 466.754C135.688 465.26 135.934 466.168 135.987 470.337C136.025 473.408 135.746 476.231 135.367 476.61C134.987 476.99 134.778 479.652 134.902 482.527C135.065 486.306 134.848 487.338 134.12 486.254C133.413 485.199 133.328 485.942 133.835 488.754C134.232 490.954 134.46 494.779 134.343 497.254C133.171 521.87 132.474 570.437 132.843 601.687C132.9 606.601 132.687 611.043 132.368 611.56C132.048 612.076 131.624 615.256 131.424 618.626C130.826 628.743 130.001 633.253 128.746 633.269C127.873 633.28 127.888 633.494 128.801 634.075C129.736 634.668 129.861 637.091 129.301 643.809C128.892 648.729 128.933 660.629 129.393 670.254C129.853 679.879 130.295 689.329 130.374 691.254C130.453 693.179 130.207 698.354 129.827 702.754C128.644 716.423 127.742 749.254 128.549 749.254C128.97 749.254 132.434 748.129 136.246 746.754C141.345 744.914 145.208 744.25 150.867 744.238C155.096 744.231 159.059 743.893 159.672 743.488C161.669 742.173 162.135 738.668 162.587 721.582C163.312 694.108 163.21 684.331 162.082 673.254C160.4 656.734 159.173 625.918 160.132 624.254C160.763 623.159 161.009 623.564 161.044 625.754C161.07 627.404 161.798 640.229 162.662 654.254C163.525 668.279 164.666 689.429 165.197 701.254C165.729 713.079 166.415 727.704 166.723 733.754C167.578 750.523 167.204 764.499 165.54 778.027C164.178 789.099 164.183 790.596 165.592 793.32C167.227 796.484 170.484 798.254 174.669 798.254H177.151L176.624 777.004C176.039 753.355 174.66 726.913 172.909 705.754C171.708 691.234 170.845 611.489 171.771 600.504C172.857 587.614 173.812 595.008 173.902 617.004C174.034 649.36 175.99 705.223 177.11 708.653C177.631 710.247 178.085 718.123 178.119 726.153C178.153 734.183 178.619 744.129 179.154 748.254C179.69 752.379 180.547 764.529 181.059 775.254C182.476 804.909 182.791 807.071 185.93 808.658C187.375 809.389 190.178 810.279 192.159 810.638L195.761 811.289L196.409 803.62C196.765 799.403 197.065 792.532 197.075 788.353C197.086 784.173 197.717 777.805 198.481 774.201C199.245 770.597 200.185 760.922 200.57 752.701C201.02 743.084 201.973 735.079 203.244 730.254C204.979 723.663 205.179 720.147 204.888 701.254C204.572 680.727 206.043 649.47 208.183 631.254C208.732 626.579 209.441 618.816 209.758 614.004C210.075 609.191 210.673 605.254 211.087 605.254C212.285 605.254 212.783 612.325 211.894 616.726C210.946 621.414 208.894 644.8 208.601 654.254C208.49 657.829 207.8 667.397 207.068 675.517C205.96 687.797 205.959 692.218 207.064 701.807C208.235 711.972 208.197 714.483 206.75 723.044C203.983 739.404 203.142 748.045 202.543 766.254C202.226 775.879 201.613 786.341 201.18 789.504C200.747 792.667 200.578 795.441 200.805 795.668C201.032 795.895 201.165 804.948 201.099 815.785L200.981 835.49L203.769 834.801C205.303 834.422 206.93 833.748 207.386 833.303ZM182.001 678.504C181.971 661.041 181.85 628.143 181.733 605.396C181.617 582.649 181.767 561.724 182.065 558.896C183.307 547.132 183.919 575.796 183.728 636.754C183.62 671.404 183.785 702.116 184.097 705.004C184.521 708.94 184.337 710.254 183.36 710.254C182.318 710.254 182.046 703.893 182.001 678.504ZM160.25 606.254C160.159 597.179 159.403 577.604 158.572 562.754C156.663 528.652 156.552 504.26 158.307 504.238C159.243 504.227 159.222 504.011 158.223 503.378C157.217 502.74 157.078 501.211 157.658 497.143C158.08 494.179 158.299 482.866 158.144 472.004C157.941 457.832 158.181 452.254 158.991 452.254C159.612 452.254 160.401 452.986 160.744 453.88C161.087 454.775 160.81 472.438 160.128 493.131C158.476 543.281 158.393 536.617 161.093 571.058C162.223 585.482 162.273 613.015 161.179 618.754C160.678 621.384 160.36 617.103 160.25 606.254ZM201.081 546.087C201.096 544.254 201.541 540.954 202.074 538.754C202.607 536.554 203.279 523.054 203.567 508.754C203.855 494.454 204.576 477.849 205.171 471.853C206.24 461.064 205.635 443.755 203.987 438.01C203.391 435.931 203.491 435.232 204.343 435.516C207.067 436.424 208.121 453.54 206.821 475.754C206.274 485.104 205.911 500.404 206.013 509.754C206.116 519.104 205.728 528.838 205.151 531.386C204.573 533.934 203.903 538.872 203.66 542.359C203.202 548.938 201.038 552.066 201.081 546.087ZM167.275 472.754L167.361 441.254H170.268C172.339 441.254 172.953 441.613 172.402 442.504C171.396 444.132 169.618 478.545 169.794 493.004C169.902 501.931 169.648 504.254 168.56 504.254C167.426 504.254 167.204 498.807 167.275 472.754ZM180.049 470.004C180.045 466.566 179.621 459.929 179.108 455.254C177.56 441.136 177.518 439.935 178.557 439.589C179.107 439.405 179.628 440.267 179.715 441.504C180.04 446.148 182.11 466.936 182.702 471.504C183.217 475.479 183.051 476.254 181.687 476.254C180.355 476.254 180.055 475.111 180.049 470.004ZM135.705 463.494C135.284 462.812 135.213 461.811 135.547 461.269C135.882 460.728 136.534 458.365 136.997 456.019L137.838 451.754L137.849 455.754C137.86 461.031 136.723 465.141 135.705 463.494ZM119.383 819.392L119.918 808.03L113.496 808.438C108.613 808.75 106.72 809.315 105.597 810.801C103.237 813.922 103.788 815.033 108.053 815.753C112.449 816.496 116.057 820.073 116.057 823.689C116.057 825.524 118.219 831.466 118.692 830.931C118.779 830.833 119.09 825.641 119.383 819.392ZM196.057 824.254V819.254L191.307 819.269C183.175 819.292 181.906 819.974 182.254 824.136L182.557 827.755L188.557 828.337C191.857 828.657 194.894 828.995 195.307 829.087C195.719 829.18 196.057 827.004 196.057 824.254ZM148.807 813.807L160.057 813.756V809.005C160.057 804.499 159.915 804.251 157.307 804.21C155.794 804.187 152.919 803.581 150.918 802.866C146.618 801.33 135.557 802.414 130.195 804.897C126.987 806.382 126.863 806.639 127.481 810.508C128.37 816.068 128.456 816.132 133.285 814.926C135.635 814.339 142.619 813.836 148.807 813.807ZM177.639 812.041C177.268 809.724 176.808 807.672 176.616 807.48C176.424 807.288 173.674 806.863 170.505 806.536C164.796 805.947 164.748 805.964 165.386 808.348C165.74 809.671 166.036 811.504 166.043 812.42C166.058 814.357 170.096 816.062 174.935 816.175L178.312 816.254L177.639 812.041ZM160.439 791.094C160.786 789.356 160.863 787.727 160.609 787.473C160.356 787.219 155.926 787.083 150.766 787.17C145.606 787.258 140.251 786.898 138.867 786.372C136.536 785.486 136.403 785.093 137.069 781.084C137.464 778.703 138.106 776.007 138.495 775.094C138.885 774.177 138.502 772.083 137.64 770.415C136.634 768.47 136.305 766.262 136.715 764.212C137.604 759.767 142.051 758.008 150.326 758.828C160.61 759.847 162.01 759.378 163.286 754.491C164.194 751.009 160.917 749.884 150.057 749.947C142.002 749.994 139.827 750.376 135.76 752.46L130.963 754.918L130.584 770.836C130.375 779.591 130.428 787.7 130.702 788.857C131.109 790.574 132.425 791.173 137.878 792.121C145.143 793.384 149.321 793.847 155.682 794.094C159.558 794.244 159.845 794.063 160.439 791.094ZM157.122 775.219C159.82 773.775 159.54 772.555 156.106 770.779C151.603 768.451 150.057 768.806 150.057 772.17C150.057 776.009 153.152 777.344 157.122 775.219ZM228.022 762.36C228.728 760.219 229.036 758.029 228.705 757.493C227.948 756.268 220.057 758.241 220.057 759.656C220.057 760.765 225.07 766.254 226.084 766.254C226.443 766.254 227.315 764.502 228.022 762.36ZM51.6586 746.642C61.3309 740.222 62.2798 736.325 56.3545 727.357C54.3182 724.275 52.1271 721.218 51.4853 720.563C49.7062 718.748 46.0593 720.126 46.0417 722.62C46.0342 723.794 45.3782 726.554 44.5856 728.754C43.1348 732.781 42.5355 745.732 43.6638 748.672C44.5365 750.946 45.5698 750.684 51.6586 746.642ZM81.7399 742.066C81.4205 741.268 81.1837 741.505 81.1357 742.67C81.0923 743.725 81.3289 744.315 81.6609 743.983C81.9932 743.651 82.0287 742.788 81.7399 742.066ZM236.959 737.104C238.375 733.043 238.383 721.573 236.97 720.7C236.373 720.331 234.46 721.375 232.72 723.021C230.98 724.667 228.544 726.534 227.307 727.169C226.069 727.804 225.057 728.939 225.057 729.69C225.057 731.088 233.792 740.254 235.124 740.254C235.529 740.254 236.355 738.837 236.959 737.104ZM44.3111 689C49.9918 684.363 49.0743 672.23 42.8037 669.068C37.8113 666.55 33.469 665.381 32.1466 666.198C30.769 667.05 29.3635 690.355 30.4328 694.616L31.099 697.27L36.2282 694.341C39.0493 692.73 42.6866 690.326 44.3111 689ZM244.77 688.833C244.888 688.738 245.095 684.523 245.23 679.467C245.509 669.048 244.628 667.04 240.919 669.638C239.65 670.527 237.924 671.261 237.084 671.27C236.244 671.277 233.992 672.665 232.079 674.35C229.199 676.888 228.602 678.101 228.602 681.417C228.602 685.864 229.766 686.958 236.557 688.895C239.81 689.823 243.581 689.794 244.77 688.833ZM22.7745 645.563C25.847 644.829 26.3329 642.474 25.157 634.02C24.5005 629.299 24.4749 624.434 25.0845 620.239C25.6036 616.666 25.7378 605.755 25.3834 595.944C24.9905 585.066 25.2062 572.026 25.9372 562.444C26.9649 548.975 28.7834 507.908 29.4438 483.254C29.5542 479.129 30.1493 473.504 30.7659 470.754C31.3826 468.004 31.9413 461.479 32.0075 456.254C32.1402 445.805 33.4276 428.69 35.1295 414.754C35.734 409.804 36.4165 402.604 36.6462 398.754C36.876 394.904 37.3454 387.784 37.6895 382.933C38.11 377.003 37.9506 373.747 37.2026 373C36.5908 372.388 35.8687 372.109 35.598 372.379C35.3274 372.65 34.6363 378.47 34.0624 385.313C33.4884 392.155 32.372 401.579 31.5815 406.254C29.8331 416.592 28.5034 427.039 26.9991 442.254C26.3737 448.579 25.2478 457.354 24.4971 461.754C23.7463 466.154 22.6578 476.504 22.0783 484.754C21.4986 493.004 20.6275 504.029 20.1425 509.254C19.6574 514.479 19.3036 520.104 19.3562 521.754C19.4088 523.404 18.9111 533.529 18.2501 544.254C16.5699 571.514 14.8647 636.325 15.6683 642.383C16.2706 646.923 16.5416 647.35 18.4462 646.753C19.6071 646.39 21.5547 645.854 22.7745 645.563ZM275.747 630.504C275.486 626.791 274.58 615.879 273.733 606.254C272.877 596.514 271.939 571.239 271.619 549.254C271.303 527.529 270.829 505.254 270.566 499.754C269.497 477.372 267.983 449.571 267.68 446.754C267.503 445.104 266.632 437.454 265.746 429.754C264.859 422.054 263.621 410.129 262.995 403.254C262.368 396.379 261.467 387.604 260.992 383.754C260.516 379.904 259.673 370.953 259.117 363.863C258.134 351.309 257.72 349.257 256.434 350.544C254.525 352.452 256.347 397.133 259.336 421.754C260.095 428.004 260.553 446.377 260.559 470.754C260.57 526.189 262.393 581.891 265.099 609.543C265.626 614.927 266.057 622.385 266.057 626.117V632.902L269.807 634.99C275.934 638.401 276.283 638.137 275.747 630.504ZM134.719 470.004C134.442 469.316 134.215 469.879 134.215 471.254C134.215 472.629 134.442 473.191 134.719 472.504C134.996 471.816 134.996 470.691 134.719 470.004ZM131.057 451.254C131.057 450.704 130.858 450.254 130.616 450.254C130.373 450.254 129.897 450.704 129.557 451.254C129.217 451.804 129.415 452.254 129.998 452.254C130.58 452.254 131.057 451.804 131.057 451.254ZM138.74 442.066C138.421 441.269 138.184 441.506 138.136 442.671C138.092 443.725 138.329 444.315 138.661 443.983C138.993 443.651 139.029 442.788 138.74 442.066ZM218.74 434.066C218.421 433.269 218.184 433.506 218.136 434.671C218.092 435.725 218.328 436.315 218.661 435.983C218.993 435.651 219.029 434.788 218.74 434.066ZM167.249 426.348C170.961 425.486 177.479 419.56 178.627 416.004C179.589 413.023 181.872 414.05 185.792 419.227C188.724 423.1 190.108 424.151 192.048 423.977C194.985 423.714 195.821 421.05 194.022 417.688C193.344 416.422 193.032 414.456 193.329 413.32C193.626 412.183 193.518 411.254 193.088 411.254C192.658 411.254 192.293 410.241 192.275 409.004C192.256 407.766 191.719 404.504 191.077 401.754C190.435 399.004 189.503 392.876 189.005 388.137C188.01 378.658 185.348 368.008 180.473 354.004C178.736 349.015 178.135 348.607 174.991 350.289C172.463 351.642 172.568 354.083 175.57 363.748C176.935 368.145 178.337 373.883 178.684 376.498C179.212 380.484 179.051 381.254 177.686 381.254C176.79 381.254 176.057 380.63 176.057 379.868C176.057 379.106 175.385 377.194 174.563 375.618C173.741 374.043 173.066 372.066 173.063 371.226C173.055 369.107 170.213 365.254 168.659 365.254C167.055 365.254 167.979 371.988 170.337 377.482C173.258 384.29 169.356 382.451 164.557 374.758C162.671 371.734 161.888 360.768 163.057 353.754C163.536 350.88 163.413 350.762 160.145 350.959C158.268 351.072 156.018 351.478 155.145 351.86C154.271 352.243 152.955 352.679 152.219 352.829C151.483 352.98 150.009 353.892 148.943 354.857C147.214 356.422 147.059 357.607 147.506 365.889C147.781 370.992 147.681 375.369 147.282 375.617C146.883 375.865 146.557 383.197 146.557 391.911C146.557 405.622 146.863 408.722 148.834 414.953C152.285 425.863 156.94 428.743 167.249 426.348ZM157.167 420.858C152.901 418.494 151.145 413.259 152.687 407.504C153.339 405.07 155.004 404.601 156.758 406.355C157.474 407.071 157.56 408.499 157.003 410.441C155.873 414.384 157.667 417.254 161.262 417.254C165.162 417.254 167.439 411.795 165.641 406.754C164.325 403.063 160.564 395.757 159.807 395.42C159.394 395.237 159.057 394.436 159.057 393.639C159.057 392.843 158.382 391.932 157.557 391.615C156.732 391.299 156.057 390.524 156.057 389.894C156.057 389.263 154.494 386.549 152.583 383.862C150.673 381.175 149.35 378.589 149.643 378.115C150.344 376.98 153.057 377.003 153.057 378.146C153.057 378.635 154.994 381.673 157.361 384.896C159.728 388.119 162.541 392.331 163.611 394.256C164.681 396.181 165.782 397.981 166.057 398.256C168.904 401.103 170.964 411.507 169.687 416.594C169.054 419.116 164.242 422.289 161.153 422.22C160.275 422.201 158.481 421.587 157.167 420.858ZM120.88 423.922C121.058 423.006 120.016 419.668 118.565 416.505C111.488 401.073 110.775 398.852 110.306 390.754C109.777 381.611 111.615 383.246 112.392 392.608C112.735 396.749 113.526 399.917 114.389 400.608C115.174 401.238 116.097 402.96 116.438 404.434C116.78 405.908 117.734 407.788 118.558 408.612C119.382 409.437 120.057 410.696 120.057 411.412C120.057 413.396 126.387 422.25 127.807 422.252C128.494 422.253 129.057 422.73 129.057 423.313C129.057 423.895 129.507 424.094 130.057 423.754C130.607 423.414 131.057 423.535 131.057 424.023C131.057 424.511 132.886 424.875 135.122 424.832C138.532 424.767 139.74 424.132 142.622 420.893C146.584 416.441 146.725 415.508 144.199 410.464C143.177 408.423 142.01 405.404 141.606 403.754C140.675 399.953 140.843 384.036 141.822 383.303C143.059 382.378 143.226 371.597 142.07 367.304C141.465 365.057 140.366 363.254 139.602 363.254C138.844 363.254 137.997 362.691 137.719 362.004C137.442 361.316 137.179 364.086 137.136 368.159C137.059 375.311 136.993 375.506 135.198 373.881C134.175 372.956 132.55 369.286 131.587 365.726C130.623 362.166 129.279 359.254 128.601 359.254C126.436 359.254 124.173 362.676 123.483 366.991C122.956 370.289 123.264 371.939 124.935 374.772C127.418 378.98 127.47 379.254 125.779 379.254C121.769 379.254 117.493 368.719 118.922 362.359C120.027 357.44 118.293 357.013 116.719 361.816C116.19 363.432 115.375 365.005 114.907 365.313C114.44 365.62 113.86 368.255 113.618 371.169C112.911 379.667 111.802 379.186 110.545 369.835C109.8 364.291 108.124 365.239 108.037 371.254C108.01 373.179 107.387 378.701 106.654 383.524C105.342 392.17 105.678 397.29 108.045 404.701C108.582 406.38 109.967 410.725 111.124 414.356C114.086 423.655 119.838 429.295 120.88 423.922ZM145.057 424.254C145.057 423.704 144.858 423.254 144.616 423.254C144.373 423.254 143.897 423.704 143.557 424.254C143.217 424.804 143.415 425.254 143.998 425.254C144.58 425.254 145.057 424.804 145.057 424.254ZM94.3626 421.504C94.0153 420.541 92.9844 418.629 92.0716 417.254C86.9959 409.608 86.0422 402.753 88.5502 391.939C90.5593 383.275 92.203 366.003 91.1213 364.92C89.3828 363.179 87.0568 368.672 87.0568 374.518C87.0568 378.955 86.5817 380.847 85.0568 382.484C83.9568 383.665 83.0568 385.221 83.0568 385.942C83.0568 387.697 81.2635 387.603 79.4129 385.753C78.4095 384.749 77.9641 382.512 78.0695 379.003C78.3594 369.352 78.0355 363.767 77.0958 362.283C75.4904 359.744 74.7904 361.905 73.9329 372.046C73.4756 377.454 72.9455 382.901 72.7549 384.15C72.0535 388.746 74.5805 395.171 78.8525 399.653C83.2821 404.301 84.2377 408.029 81.5678 410.245C79.7305 411.769 73.7565 410.811 71.5889 408.643C70.2127 407.267 70.0568 407.428 70.0568 410.222C70.0568 413.441 73.195 420.603 75.1289 421.798C75.7343 422.172 77.6747 421.078 79.4408 419.366C83.5618 415.372 85.2486 415.445 88.1779 419.747C90.7525 423.527 95.5883 424.901 94.3626 421.504ZM56.0568 415.325C56.0568 414.815 56.6548 413.799 57.3857 413.068C60.1373 410.316 62.8545 397.908 63.4768 385.254C64.1567 371.427 63.4541 371.182 59.2244 383.776C55.985 393.425 52.9579 416.254 54.9179 416.254C55.5443 416.254 56.0568 415.836 56.0568 415.325ZM102.128 412.004C103.439 407.146 102.766 398.173 100.537 390.821C99.4203 387.135 99.2078 383.532 99.6971 376.571C100.252 368.674 100.124 367.254 98.8555 367.254C97.6807 367.254 97.1718 369.458 96.4887 377.504C95.0024 395.01 95.3626 406.123 97.5904 411.5C98.672 414.111 99.877 416.248 100.268 416.25C100.66 416.252 101.496 414.341 102.128 412.004ZM204.643 411.504C207.08 408.891 209.31 406.015 209.598 405.111C209.887 404.208 211.483 402.906 213.146 402.217C216.529 400.815 218.061 401.658 218.317 405.062C218.405 406.22 218.674 406.97 218.915 406.729C219.157 406.487 220.37 407.471 221.611 408.915C224.799 412.626 227.024 411.475 227.177 406.035C227.404 397.953 226.938 391.073 225.998 388.6C225.48 387.238 225.057 384.829 225.057 383.246C225.057 379.984 220.088 364.622 217.244 359.09C214.881 354.494 208.744 347.254 207.211 347.254C205.76 347.254 205.728 350.268 207.139 353.939C207.734 355.487 208.612 359.004 209.09 361.754C209.567 364.504 211.102 372.154 212.5 378.754C213.897 385.354 215.044 392.021 215.049 393.57C215.056 396.036 214.724 396.347 212.387 396.07C209.784 395.762 209.708 395.557 209.334 387.843C209.122 383.492 208.04 376.292 206.929 371.843C205.818 367.394 204.514 362.179 204.032 360.254C202.975 356.036 203.057 356.447 203.057 355.367C203.057 354.88 201.819 354.224 200.307 353.911C191.52 352.089 184.809 351.169 184.267 351.71C183.926 352.051 184.225 353.776 184.932 355.542C187.043 360.816 191.141 377.288 192.076 384.254C194.932 405.53 197.365 416.254 199.336 416.254C199.819 416.254 202.207 414.116 204.643 411.504ZM53.4854 373.682C54.3496 372.818 55.0568 371.725 55.0568 371.254C55.0568 370.782 55.6193 369.802 56.3068 369.075C57.4596 367.857 60.1423 363.214 64.004 355.755C64.858 354.105 65.7825 352.53 66.0584 352.255C66.3343 351.979 67.1847 350.541 67.9482 349.058C69.1678 346.69 69.118 345.903 67.5384 342.574C63.541 334.15 62.9604 328.549 64.5106 313.368C65.3026 305.613 65.1937 304.666 63.0635 300.766C60.3525 295.803 58.872 294.736 53.4192 293.815C49.9568 293.23 48.9134 293.504 46.3366 295.672C42.2713 299.093 41.53 303.247 44.1827 307.743C45.3221 309.674 46.6599 311.254 47.1556 311.254C47.6513 311.254 48.0568 311.724 48.0568 312.298C48.0568 312.872 49.1785 314.551 50.5496 316.029C54.2148 319.982 57.8087 328.223 58.0842 333.306C58.6226 343.237 58.1107 348.254 56.5568 348.254C54.7537 348.254 54.7146 347.498 56.2102 341.558C58.041 334.288 54.6895 323.704 48.3341 316.687C46.8065 315.001 42.8566 309.6 39.5566 304.687C36.2566 299.774 33.3192 295.529 33.029 295.254C31.9051 294.189 29.0429 286.459 27.4749 280.254C26.296 275.588 25.9902 271.443 26.3913 265.568C27.1866 253.921 30.617 247.772 37.5566 245.557C39.7559 244.855 40.6411 243.886 40.8731 241.927C41.1429 239.648 40.8148 239.254 38.6498 239.254C35.8367 239.254 27.0566 243.191 27.0566 244.453C27.0566 244.893 26.3816 245.254 25.5566 245.254C24.7316 245.254 24.0567 245.704 24.0567 246.254C24.0567 246.804 23.3816 247.254 22.5566 247.254C19.9361 247.254 20.9226 245.845 25.8086 242.61C33.8696 237.273 39.3008 235.748 46.1932 236.888C50.739 237.64 52.3763 237.574 53.1796 236.606C53.7567 235.91 53.9044 234.816 53.5077 234.175C52.608 232.719 31.8386 233.387 29.8735 234.935C29.1492 235.506 27.0392 236.26 25.1846 236.613C22.3845 237.144 22.0076 237.018 22.9618 235.868C24.5247 233.985 34.812 231.545 44.7471 230.701C50.0017 230.255 53.1164 229.54 53.4363 228.706C54.491 225.958 42.2856 224.076 36.8385 226.147C33.1478 227.55 25.5566 227.906 25.5566 226.676C25.5566 225.612 29.4159 220.173 31.7718 217.917C34.0287 215.757 35.9692 214.254 36.5029 214.254C37.6611 214.254 41.0565 210.733 41.0565 209.532C41.0565 207.776 37.5314 207.922 35.6994 209.754C34.8744 210.579 33.81 211.254 33.334 211.254C32.1118 211.254 25.0566 218.849 25.0566 220.165C25.0566 220.764 24.6066 221.254 24.0565 221.254C23.5065 221.254 23.0565 221.891 23.0565 222.67C23.0565 223.45 22.7149 224.237 22.2976 224.42C21.6084 224.723 19.6191 228.271 13.6992 239.754C10.1236 246.69 9.50471 251.029 10.2051 264.254C10.569 271.129 10.9096 282.323 10.9618 289.13C11.0271 297.665 11.6922 304.338 13.105 310.63C17.4695 330.069 25.3502 350.595 31.6518 358.937C32.9744 360.688 34.0565 362.368 34.0565 362.67C34.0565 363.813 43.6429 373.506 45.5566 374.299C48.7403 375.617 51.7875 375.38 53.4854 373.682ZM105.557 374.254C105.897 373.704 105.698 373.254 105.116 373.254C104.533 373.254 104.057 373.704 104.057 374.254C104.057 374.804 104.255 375.254 104.498 375.254C104.74 375.254 105.217 374.804 105.557 374.254ZM237.45 368.796C239.297 366.894 241.161 365.657 241.592 366.046C242.023 366.435 242.125 366.05 241.82 365.192C241.514 364.333 242.107 362.533 243.138 361.192C244.169 359.851 245.026 358.304 245.043 357.754C245.062 357.204 246.567 355.179 248.391 353.254C250.216 351.329 252.35 348.542 253.133 347.061C256.352 340.974 258.892 335.581 259.874 332.754C260.447 331.104 262.072 326.65 263.486 322.857C264.9 319.064 266.057 314.928 266.057 313.666C266.057 312.404 266.507 311.094 267.057 310.754C267.607 310.414 268.057 309.064 268.057 307.754C268.057 306.444 268.447 305.13 268.925 304.835C269.402 304.54 270.096 302.015 270.466 299.223C270.837 296.432 271.858 292.484 272.737 290.451C273.615 288.417 274.681 285.854 275.105 284.754C275.529 283.654 276.758 280.729 277.836 278.254C281.162 270.614 282.38 267.136 282.689 264.393C283.247 259.44 285.72 248.758 286.773 246.754C290.377 239.892 290.528 239.184 288.983 236.432C288.161 234.967 286.716 233.619 285.772 233.438C284.348 233.163 284.049 233.925 284.011 237.931C283.985 240.583 283.348 244.104 282.593 245.754C281.299 248.578 281.214 248.241 281.138 239.99C281.093 235.17 280.647 230.445 280.146 229.49C279.645 228.535 277.977 225.13 276.441 221.922C273.563 215.915 268.675 210.254 266.367 210.254C264.501 210.254 264.72 211.044 267.572 214.609C271.136 219.066 271.364 219.414 273.25 223.281C274.901 226.668 278.265 248.011 277.382 249.504C276.036 251.781 275.273 249.27 274.8 241.004C274.155 229.738 271.738 223.763 265.272 217.457C259.778 212.099 259.262 213.649 263.509 222.754C267.326 230.936 268.384 234.043 268.776 238.214C269.011 240.711 269.648 243.677 270.193 244.806C271.411 247.331 270.93 256.196 269.557 256.519C269.007 256.648 268.311 254.279 268.011 251.254C267.305 244.141 264.227 237.747 259.13 232.801C255.456 229.235 255.057 229.064 255.057 231.056C255.057 232.27 256.21 235.624 257.619 238.509C262.747 249.006 263.086 250.817 260.811 255.525C259.007 259.259 258.851 260.917 259.423 270.243C259.994 279.556 260.957 285.878 262.661 291.504C263.574 294.517 260.236 293.501 258.557 290.254C257.703 288.604 256.638 287.254 256.19 287.254C255.741 287.254 254.169 289.469 252.695 292.177C251.221 294.885 249.687 297.248 249.286 297.427C248.361 297.841 243.057 305.623 243.057 306.566C243.057 306.954 241.707 309.135 240.057 311.413C238.407 313.69 237.057 316.161 237.057 316.904C237.057 317.646 236.637 318.254 236.124 318.254C235.611 318.254 234.877 319.266 234.493 320.504C234.109 321.741 233.034 323.879 232.106 325.254C230.099 328.225 228.057 336.839 228.057 342.33C228.057 344.606 227.577 346.254 226.914 346.254C226.104 346.254 225.944 343.996 226.364 338.504C227.036 329.727 228.455 326.375 238.535 309.752C242.122 303.836 245.057 298.877 245.057 298.73C245.057 298.008 236.692 294.444 235.7 294.743C235.071 294.932 233.269 295.371 231.695 295.717C225.555 297.07 218.044 308.507 217.551 317.254C217.394 320.047 217.574 320.995 218.029 319.754L218.761 317.754L219.393 319.754C219.74 320.854 219.932 327.829 219.819 335.254C219.653 346.178 219.927 349.326 221.258 351.754C222.162 353.404 223.859 356.779 225.029 359.254C227.503 364.49 229.064 367.132 230.807 369.033C231.494 369.783 232.057 370.815 232.057 371.325C232.057 373.171 234.159 372.185 237.45 368.796ZM217.74 352.066C217.421 351.269 217.184 351.506 217.136 352.671C217.092 353.725 217.329 354.315 217.661 353.983C217.993 353.651 218.029 352.788 217.74 352.066ZM183.057 352.813C183.057 352.57 182.607 352.094 182.057 351.754C181.507 351.414 181.057 351.612 181.057 352.195C181.057 352.777 181.507 353.254 182.057 353.254C182.607 353.254 183.057 353.055 183.057 352.813ZM149.457 329.943C149.403 320.196 149.067 311.931 148.711 311.575C148.355 311.219 144.237 310.735 139.56 310.5L131.057 310.073V317.79C131.057 324.288 131.614 326.899 134.588 334.332C136.946 340.227 137.913 343.98 137.497 345.636C136.938 347.865 137.211 348.146 140.216 348.434C142.053 348.61 144.907 348.509 146.557 348.209L149.557 347.665L149.457 329.943ZM110.822 344.254C112.272 344.254 116.075 343.477 119.273 342.528C124.292 341.037 125.201 340.388 125.915 337.778C126.865 334.304 126.203 312.148 125.114 310.97C124.159 309.937 113.982 308.345 112.346 308.973C111.645 309.242 111.261 310.428 111.493 311.608C113.114 319.856 114.233 329.41 113.648 329.996C112.526 331.118 111.089 328.035 111.072 324.472C111.065 322.667 110.382 319.574 109.557 317.6C108.732 315.625 108.057 312.94 108.057 311.632C108.057 308.048 105.631 308.778 104.177 312.798C102.639 317.051 102.536 327.412 104.005 330.156C105.427 332.814 105.332 335.256 103.807 335.244C102.304 335.233 99.1328 326.656 98.1107 319.841C97.6015 316.446 96.6299 314.325 94.9655 312.975L92.557 311.021L91.7808 316.388C89.7398 330.499 90.6197 334.66 97.057 341.339C100.762 345.184 103.083 346.194 105.819 345.154C107.122 344.659 109.373 344.254 110.822 344.254ZM196.857 345.054C197.517 344.394 198.057 343.076 198.057 342.125C198.057 341.174 199.68 338.677 201.664 336.575C207.905 329.965 209.774 325.008 209.989 314.504C210.201 304.062 210.272 304.13 201.557 306.296C192.773 308.478 171.056 311.245 162.672 311.249L153.788 311.253L154.271 318.007C154.602 322.637 155.643 326.576 157.578 330.528C161.787 339.124 162.59 339.371 164.54 332.664C166.329 326.508 168.685 322.253 170.303 322.253C171.303 322.253 171.176 323.456 169.135 333.253C168.434 336.621 168.522 338.086 169.487 339.076C170.549 340.168 171.391 339.681 174.285 336.299C176.884 333.264 178.108 330.583 178.999 325.976C180.224 319.64 182.154 315.054 183.828 314.496C184.905 314.137 186.506 327.853 186.076 333.753C185.325 344.071 185.416 344.604 188.057 345.349C192.033 346.47 195.558 346.352 196.857 345.054ZM74.9128 323.03C75.1116 317.933 74.7628 312.216 74.1223 310.078L72.9758 306.251L70.8251 308.255C68.9545 309.998 68.6781 311.333 68.7025 318.506C68.7214 324.114 69.2848 327.996 70.4621 330.635C73.0395 336.413 74.4872 333.94 74.9128 323.03ZM84.4632 328.575C86.1715 323.561 86.7267 306.254 85.1792 306.254C81.1875 306.254 77.4437 324.881 80.0549 331.749C81.3517 335.16 82.5016 334.332 84.4632 328.575ZM217.74 308.066C217.421 307.269 217.184 307.506 217.136 308.671C217.092 309.725 217.329 310.315 217.661 309.983C217.993 309.651 218.029 308.788 217.74 308.066ZM145.557 305.445C147.939 305.309 148.248 305.495 147.057 306.35C145.889 307.189 146.111 307.281 148.057 306.768C149.432 306.406 151.007 306.132 151.557 306.161C152.107 306.191 155.032 306.367 158.057 306.554C161.082 306.742 163.782 306.585 164.057 306.207C164.332 305.828 168.221 305.266 172.699 304.957C183.496 304.214 202.818 300.811 215.057 297.496C219.961 296.168 231.738 290.711 233.052 289.158C233.33 288.83 234.721 288.277 236.144 287.93C237.567 287.582 239.93 286.355 241.394 285.203C243.68 283.405 244.057 282.358 244.057 277.8C244.057 272.339 247.937 260.177 250.637 257.175C251.418 256.307 252.057 255.264 252.057 254.858C252.057 254.452 253.165 252.667 254.52 250.891C256.909 247.759 256.939 247.514 255.526 242.816C254.724 240.152 253.545 237.343 252.907 236.574C251.12 234.42 251.285 226.598 253.157 224.725C254.625 223.257 255.109 223.461 258.989 227.189C261.316 229.425 263.402 231.254 263.626 231.254C264.192 231.254 259.138 219.943 258.111 218.912C257.65 218.448 252.611 219.639 246.914 221.557C241.218 223.476 234.419 225.345 231.807 225.711C229.194 226.077 227.057 226.755 227.057 227.219C227.057 228.436 217.136 228.945 216.635 227.754C216.404 227.204 216.179 227.541 216.136 228.504C216.081 229.703 215.236 230.254 213.45 230.254C212.016 230.254 206.954 230.903 202.2 231.696C179.335 235.512 143.904 237.162 126.533 235.221C120.496 234.547 114.432 234.018 113.057 234.047C110.03 234.109 98.2779 231.759 88.0566 229.046C83.9316 227.952 78.7566 226.584 76.5566 226.008C65.7383 223.173 56.1106 220.009 54.428 218.735C53.3987 217.955 51.8056 217.303 50.8876 217.286C49.9697 217.267 47.8099 216.466 46.088 215.504C43.0699 213.817 42.9052 213.824 41.5069 215.695C38.1744 220.155 39.8672 221.521 50.4031 222.872C55.5496 223.532 58.5325 225.558 58.8848 228.633C59.0654 230.209 58.7279 231.983 58.1348 232.576C57.5418 233.169 57.0566 234.877 57.0566 236.372C57.0566 241.528 56.2472 242.254 50.495 242.254C45.159 242.254 45.1458 242.261 44.4802 245.81C43.7847 249.517 43.9858 251.185 46.5221 262.754C47.3661 266.603 48.0566 272.083 48.0566 274.93C48.0566 280.792 46.5231 279.5 64.0566 288.403C69.2816 291.056 74.1207 293.233 74.8102 293.241C75.4997 293.248 77.743 294.154 79.7954 295.254C81.8478 296.354 84.4561 297.254 85.5918 297.254C86.7274 297.254 88.0841 297.657 88.6066 298.149C89.4392 298.933 92.2469 299.705 101.987 301.828C103.323 302.12 104.708 302.538 105.064 302.758C105.42 302.978 111.751 303.666 119.134 304.287C126.516 304.908 134.033 305.544 135.838 305.7C137.643 305.856 139.401 306.265 139.746 306.61C140.091 306.955 140.864 306.872 141.465 306.427C142.065 305.981 143.907 305.539 145.557 305.445ZM40.6604 278.855C43.1445 269.23 43.3946 265.362 42.0214 257.809C40.2423 248.022 39.7021 247.133 36.2657 248.331C26.4791 251.743 25.5748 282.324 35.037 289.882C36.7883 291.28 38.1347 288.64 40.6604 278.855ZM256.436 275.754C255.122 271.417 254.933 266.439 255.884 261.219C256.432 258.213 256.742 255.613 256.573 255.441C255.421 254.271 248.057 274.514 248.057 278.85C248.057 280.245 248.56 282.326 249.176 283.476C250.256 285.494 250.412 285.431 253.668 281.66C256.026 278.93 256.859 277.152 256.436 275.754ZM165.172 230.96C166.061 230.284 168.249 226.834 170.036 223.295L173.285 216.859L170.276 210.806C165.078 200.349 163.141 194.937 162.473 189.004C161.858 183.533 160.222 181.56 158.548 184.268C157.246 186.375 149.974 189.249 143.342 190.278C137.607 191.167 135.97 191.089 133.509 189.806C131.885 188.959 129.978 188.263 129.272 188.26C128.565 188.257 126.884 187.532 125.537 186.649C123.176 185.102 123.05 185.141 122.072 187.714C121.514 189.182 121.057 191.729 121.057 193.374C121.057 196.607 118.014 204.017 115.265 207.481C113.438 209.781 109.068 213.9 105.154 217.01L102.751 218.92L108.142 224.337C111.107 227.316 113.857 229.648 114.253 229.518C114.65 229.388 117.58 229.913 120.765 230.684C128.431 232.541 162.815 232.755 165.172 230.96ZM140.057 227.909C140.057 227.169 140.993 225.716 142.138 224.681C143.282 223.645 145.38 220.425 146.8 217.526C149.584 211.839 150.603 211.129 151.489 214.254C151.802 215.354 152.309 217.143 152.616 218.229C153.243 220.44 148.08 226.254 145.491 226.254C144.668 226.254 143.735 226.929 143.418 227.754C142.703 229.618 140.057 229.74 140.057 227.909ZM135.679 221.105C133.546 218.547 130.734 215.884 129.429 215.186C128.124 214.487 127.057 213.092 127.057 212.085C127.057 210.68 127.825 210.254 130.361 210.254C132.798 210.254 134.519 211.136 136.925 213.618C139.758 216.541 140.144 217.556 139.871 221.368L139.557 225.754L135.679 221.105ZM199.307 229.592C198.619 229.314 197.494 229.314 196.807 229.592C196.119 229.869 196.682 230.096 198.057 230.096C199.432 230.096 199.994 229.869 199.307 229.592ZM186.327 224.247C187.723 220.694 187.732 220.072 186.408 218.747C183.605 215.945 180.751 216.973 177.307 222.026C175.52 224.649 174.057 227.123 174.057 227.525C174.057 227.926 176.464 228.254 179.405 228.254C184.718 228.254 184.764 228.227 186.327 224.247ZM203.846 226.337C209.329 225.277 209.801 224.733 207.47 222.158C205.887 220.408 204.825 220.151 201.226 220.644C198.441 221.026 196.237 222.045 195.064 223.493C192.15 227.092 195.062 228.036 203.846 226.337ZM94.0568 221.754C89.1334 216.674 83.0568 217.013 83.0568 222.368C83.0568 223.894 87.1682 225.122 92.5029 225.19L97.4491 225.254L94.0568 221.754ZM68.4387 216.094C68.7864 214.356 68.8522 212.716 68.5854 212.449C67.9384 211.802 54.5377 210.594 53.1479 211.057C50.1256 212.064 54.5352 215.041 63.5569 218.084C67.8354 219.527 67.7447 219.564 68.4387 216.094ZM48.4997 206.643C47.6479 199.826 48.2351 199.29 56.5846 199.269C63.0288 199.254 64.3548 200.063 66.7853 205.504C68.1104 208.47 71.4869 209.164 75.1225 207.219C79.9919 204.613 74.1973 196.847 66.5247 195.697C59.3205 194.616 51.2405 195.955 46.3633 199.036C43.9967 200.531 42.0595 202.078 42.0586 202.475C42.0565 203.302 48.2472 212.254 48.8212 212.254C49.0299 212.254 48.8852 209.729 48.4997 206.643ZM62.6638 206.673C62.33 205.803 62.0568 204.678 62.0568 204.173C62.0568 203.668 59.8068 203.255 57.0568 203.255C54.3067 203.255 52.0568 203.65 52.0568 204.132C52.0568 205.611 54.4043 207.055 57.5568 207.516C63.1357 208.332 63.2907 208.307 62.6638 206.673ZM152.028 184.13C153.948 183.101 156.877 180.973 158.538 179.402C161.209 176.873 162.396 175.047 166.76 166.755C169.385 161.768 171.057 156.961 171.057 154.405C171.057 152.482 172.138 150.665 174.557 148.524C177.309 146.087 178.057 144.672 178.057 141.899C178.057 139.96 177.56 138.066 176.953 137.69C175.147 136.574 172.102 128.998 172.079 125.562C172.045 120.798 168.528 115.716 162.842 112.218C160.057 110.504 155.093 106.234 151.809 102.729L145.839 96.3555L142.698 98.555C140.97 99.7648 139.308 101.088 139.004 101.495C138.699 101.902 135.662 103.586 132.254 105.237C128.62 106.998 126.057 108.879 126.057 109.787C126.057 111.286 118.454 119.255 117.023 119.255C116.634 119.255 116.015 122.292 115.648 126.005C115.057 131.984 114.683 132.894 112.378 133.977C110.947 134.649 109.394 134.963 108.928 134.675C108.461 134.387 108.348 134.849 108.675 135.703C109.003 136.556 108.796 137.255 108.215 137.255C107.635 137.255 105.984 138.344 104.548 139.675L101.935 142.096L104.131 146.426C105.338 148.807 106.614 150.98 106.967 151.255C108.53 152.473 114.057 160.144 114.057 161.096C114.057 162.629 118.667 171.055 121.637 174.948C124.025 178.08 127.218 181.356 130.259 183.796C134.77 187.417 145.586 187.583 152.028 184.13ZM141.188 173.913C139.543 171.931 140.824 171.255 146.223 171.255C150.39 171.255 151.057 171.53 151.057 173.255C151.057 174.95 150.39 175.255 146.679 175.255C144.237 175.255 141.809 174.661 141.188 173.913ZM136.807 164.886C135.844 164.142 135.057 163.222 135.057 162.839C135.057 162.457 138.994 162.282 143.807 162.45C150.782 162.693 152.557 163.059 152.557 164.255C152.557 166.323 139.352 166.852 136.807 164.886ZM141.557 158.435C135.895 155.216 135.868 155.188 137.109 153.692C138.084 152.517 138.708 152.54 141.234 153.846C143.934 155.242 144.441 155.233 146.714 153.744C148.091 152.841 149.969 152.391 150.888 152.743C152.263 153.271 151.878 153.988 148.696 156.819C146.573 158.709 144.773 160.229 144.696 160.197C144.62 160.165 143.207 159.373 141.557 158.435ZM109.057 145.326C109.057 142.794 111.724 140.19 113.586 140.904C114.411 141.221 115.057 142.738 115.057 144.362C115.057 146.909 114.699 147.255 112.057 147.255C109.761 147.255 109.057 146.802 109.057 145.326ZM172.057 144.314C172.057 143.246 171.607 142.095 171.057 141.755C169.328 140.686 169.968 139.372 172.139 139.536C174.571 139.719 176.311 142.427 175.446 144.682C174.591 146.912 172.057 146.636 172.057 144.314ZM151.749 136.208C149.448 133.521 150.406 132.057 153.657 133.293C157.077 134.593 160.125 134.502 163.35 133.005C167.317 131.162 166.644 129.465 161.649 128.716C156.436 127.934 151.635 128.819 149.499 130.955C147.676 132.778 146.748 132.222 147.658 129.851C148.408 127.898 157.057 123.255 159.947 123.255C162.758 123.255 168.057 128.05 168.056 130.594C168.055 131.782 166.99 133.992 165.689 135.505C163.706 137.81 162.531 138.255 158.413 138.255C154.701 138.255 153.073 137.754 151.749 136.208ZM126.137 134.99C123.393 133.589 119.309 127.004 120.864 126.486C121.418 126.301 122.882 125.273 124.117 124.202C128.985 119.981 141.057 123.229 141.057 128.76C141.057 129.667 139.741 131.724 138.134 133.332C134.917 136.548 130.41 137.171 126.137 134.99ZM137.194 130.341L139.248 128.427L137.218 127.341C133.944 125.589 126.108 125.958 125.363 127.899C123.822 131.915 133.386 133.889 137.194 130.341ZM164.74 184.067C164.421 183.269 164.184 183.506 164.136 184.671C164.092 185.725 164.328 186.316 164.661 185.984C164.993 185.652 165.029 184.789 164.74 184.067ZM174.864 153.728C174.556 153.42 173.997 153.975 173.621 154.961C173.078 156.387 173.193 156.502 174.181 155.521C174.864 154.843 175.172 154.036 174.864 153.728ZM183.083 133.005C182.663 131.217 181.556 127.175 180.623 124.022C179.689 120.869 179.066 117.457 179.239 116.439C179.574 114.46 174.074 108.474 168.057 104.268C166.132 102.923 162.606 100.007 160.221 97.7882C155.497 93.3936 153.162 91.8158 152.444 92.5337C151.774 93.2037 154.223 98.2546 155.217 98.2546C155.679 98.2546 156.057 98.7236 156.057 99.2968C156.057 99.87 156.514 100.883 157.072 101.547C160.965 106.177 163.093 108.255 163.942 108.255C164.482 108.255 167.134 110.408 169.837 113.04C174.349 117.435 174.806 118.318 175.432 123.859C175.94 128.344 176.813 130.705 178.836 133.063C182.435 137.257 184.076 137.235 183.083 133.005ZM110.443 127.853C111.33 125.983 112.057 122.933 112.057 121.076C112.057 118.98 112.787 117.074 113.982 116.051C115.04 115.144 118.233 111.442 121.077 107.824C124.402 103.592 127.194 101.039 128.902 100.666C132.914 99.7916 138.057 96.9518 138.057 95.6105C138.057 94.9564 138.619 94.1826 139.307 93.891C139.994 93.5993 138.619 93.6235 136.25 93.9446C129.572 94.8498 125.59 97.4202 117.015 106.36C108.795 114.929 107.607 117.192 106.694 126.005C106.043 132.296 107.9 133.212 110.443 127.853ZM101.7 80.3675L101.843 76.4916L94.7761 76.9013C89.754 77.1924 87.475 76.9412 86.8985 76.0328C86.2642 75.0332 86.0841 75.027 86.0721 76.0044C86.0608 76.9395 82.7819 77.2544 73.0568 77.2544C65.9068 77.2544 60.0717 77.5919 60.09 78.0044C60.1089 78.4169 60.9594 79.7564 61.9813 80.9809C63.756 83.1076 64.6401 83.2208 81.698 83.5055C91.5203 83.6695 100.007 83.9025 100.557 84.0234C101.107 84.1442 101.621 82.4992 101.7 80.3675ZM234.942 80.2472L238.328 77.2546H211.553C187.268 77.2546 184.643 77.0918 183.335 75.5046C181.965 73.8408 181.921 73.8419 182.452 75.5265C182.981 77.2034 181.092 77.284 147.284 77.0265C124.945 76.8564 111.281 76.3797 110.822 75.7544C110.37 75.1398 110.081 75.2482 110.072 76.0358C110.064 76.7406 110.732 77.5762 111.557 77.8928C113.625 78.6864 113.447 82.0093 111.307 82.5502C110.344 82.7936 137.007 83.0483 170.557 83.1162L231.557 83.2397L234.942 80.2472ZM100.231 74.2313C100.459 73.5466 125.303 73.1846 175.315 73.1372C236.637 73.0791 250.057 72.8286 250.057 71.7423C250.057 71.014 250.35 69.6544 250.708 68.721C251.228 67.3662 250.948 67.1542 249.323 67.6701C248.203 68.0255 245.432 67.8997 243.166 67.3905C240.749 66.8473 238.816 66.8346 238.492 67.3595C237.653 68.7165 234.059 68.4298 234.041 67.0045C234.034 66.2304 233.746 66.1352 233.291 66.7545C232.238 68.1877 209.225 68.6387 207.562 67.2586C206.809 66.6339 205.993 66.5481 205.677 67.0605C205.37 67.5572 201.617 67.7863 197.338 67.5695C193.058 67.3527 188.227 67.1823 186.601 67.1908C184.975 67.1991 183.295 66.6546 182.866 65.9804C182.373 65.2042 182.082 65.1581 182.072 65.8548C182.065 66.5101 179.731 67.0094 176.307 67.0892C168.103 67.2805 70.5813 68.2361 58.2403 68.2461L47.9239 68.2544L48.2403 71.0044L48.5566 73.7544L73.8948 73.4573C91.3635 73.2524 99.032 73.4853 98.5858 74.2073C98.2298 74.7832 98.3775 75.2544 98.9142 75.2544C99.4508 75.2544 100.044 74.7941 100.231 74.2313ZM97.0568 64.2546C97.0568 63.7046 96.2693 63.2615 95.3068 63.2699C93.8112 63.2831 93.7749 63.4262 95.0569 64.2546C96.9441 65.4742 97.0568 65.4742 97.0568 64.2546ZM207.557 64.2546C207.897 63.7046 207.698 63.2546 207.116 63.2546C206.533 63.2546 206.057 63.7046 206.057 64.2546C206.057 64.8046 206.255 65.2546 206.498 65.2546C206.74 65.2546 207.217 64.8046 207.557 64.2546ZM210.347 63.2546C210.634 62.1546 210.462 61.2546 209.963 61.2546C209.465 61.2546 209.057 62.1546 209.057 63.2546C209.057 64.3546 209.229 65.2546 209.44 65.2546C209.651 65.2546 210.059 64.3546 210.347 63.2546ZM251.057 64.8136C251.057 64.5711 250.607 64.0945 250.057 63.7546C249.507 63.4147 249.057 63.6131 249.057 64.1956C249.057 64.778 249.507 65.2546 250.057 65.2546C250.607 65.2546 251.057 65.0562 251.057 64.8136ZM63.0568 63.2546C63.0568 62.7046 62.8584 62.2546 62.6158 62.2546C62.3731 62.2546 61.8967 62.7046 61.5568 63.2546C61.217 63.8046 61.4154 64.2546 61.9978 64.2546C62.5802 64.2546 63.0568 63.8046 63.0568 63.2546ZM222.209 62.3081C225.628 60.2287 230.742 53.3562 231.695 49.5596C232.013 48.2919 232.562 47.2552 232.915 47.256C233.268 47.2568 233.332 43.2215 233.057 38.2887C232.435 27.1313 231.203 25.3497 225.528 27.4001C221.96 28.6889 217.057 33.6917 217.057 36.0423C217.057 36.6467 216.252 37.7292 215.267 38.4479C213.876 39.4639 213.414 41.423 213.193 47.2546C212.903 54.9067 213.955 59.3798 216.782 62.5028C218.72 64.645 218.344 64.6584 222.209 62.3081ZM218.297 56.2682C216.288 53.0509 216.855 48.4633 220.103 41.6581C224.997 31.4036 229.502 30.665 229.286 40.1526C229.128 47.1018 223.761 58.2546 220.575 58.2546C220.005 58.2546 218.98 57.3607 218.297 56.2682ZM225.057 39.2546C225.057 38.7046 224.607 38.2546 224.057 38.2546C223.507 38.2546 223.057 38.7046 223.057 39.2546C223.057 39.8046 223.507 40.2546 224.057 40.2546C224.607 40.2546 225.057 39.8046 225.057 39.2546ZM77.7454 61.7601C80.1191 60.0975 81.4077 54.6299 81.2579 46.8568C81.1313 40.2922 75.9486 30.0498 71.5567 27.6846C68.5656 26.0738 68.2535 26.0796 65.6368 27.7941C64.1175 28.7896 62.4654 30.6798 61.9656 31.9944C60.5129 35.8153 60.8828 48.0868 62.5567 51.6035C64.673 56.0496 69.1146 60.9753 72.0568 62.139C75.3986 63.4608 75.3089 63.4667 77.7454 61.7601ZM72.3068 57.5408C71.6193 57.2917 71.0567 56.4363 71.0567 55.6399C71.0567 54.8435 70.423 53.9486 69.6483 53.6514C67.3903 52.7849 65.6213 47.247 65.5878 40.9401C65.5651 36.3754 65.9635 34.7991 67.4162 33.7356C68.8736 32.6684 69.684 32.6294 71.1661 33.555C72.206 34.2044 73.0568 35.3025 73.0568 35.9952C73.0568 36.6879 73.4534 37.2546 73.938 37.2546C75.1738 37.2546 77.0568 45.2775 77.0568 50.5424C77.0568 55.1018 74.7906 58.4406 72.3068 57.5408ZM154.025 61.1203C156.591 59.2227 156.986 58.1867 157.587 51.7778C158.311 44.047 156.782 30.9964 155.086 30.4309C154.52 30.2423 154.057 29.6125 154.057 29.0315C154.057 27.6079 150.941 25.3258 148.943 25.2864C146.805 25.2443 142.32 29.8182 139.956 34.4516C136.241 41.7337 138.146 56.4689 143.37 60.8651C146.884 63.8212 150.262 63.9021 154.025 61.1203ZM145.794 55.7678C143.349 52.4072 142.584 45.3927 144.012 39.4394C144.986 35.3825 145.768 34.2025 148.136 33.2217C153.162 31.1399 154.057 32.8901 154.057 44.8056C154.057 52.8415 153.711 55.4579 152.485 56.6832C150.257 58.9118 147.84 58.5812 145.794 55.7678ZM59.5935 60.2141C61.3891 58.2299 61.389 58.0868 59.5859 55.0362C57.2739 51.1223 56.3989 39.3643 57.9835 33.5046C58.6157 31.1671 59.4698 29.2546 59.8815 29.2546C60.2933 29.2546 60.6957 28.3848 60.7758 27.3218C61.0646 23.4889 57.0802 25.4392 54.3412 30.4716C52.9094 33.1022 51.4719 35.2546 51.1469 35.2546C50.8218 35.2546 48.8294 33.2296 46.7193 30.7546C43.7986 27.3288 42.1873 26.2546 39.9693 26.2546C36.4074 26.2546 36.3376 26.8596 39.5559 29.8422C40.9309 31.1165 42.0558 32.6082 42.0558 33.1572C42.0558 33.7061 42.6231 34.5151 43.3163 34.9549C45.6 36.4038 51.2898 49.4456 52.6088 56.2546C53.806 62.4353 56.3027 63.8503 59.5935 60.2141ZM114.284 60.5046C115.129 59.5421 116.131 57.7355 116.511 56.4901C116.89 55.2446 117.533 54.4307 117.938 54.6814C119.135 55.4207 118.104 43.3006 116.364 36.1715C115.057 30.8161 114.168 29.1843 111.595 27.4215C109.856 26.2297 107.697 25.2546 106.796 25.2546C102.141 25.2546 97.091 34.9363 97.0676 43.9053C97.0563 48.2158 100.508 56.8861 103.593 60.2943C105.88 62.822 112.14 62.9452 114.284 60.5046ZM105.214 55.2578C103.566 53.6096 101.925 50.9307 101.568 49.3048C100.574 44.7789 102.307 35.2546 104.124 35.2546C104.637 35.2546 105.057 34.5796 105.057 33.7546C105.057 31.7477 108.504 31.8448 110.569 33.9098C113.087 36.4273 114.057 39.8146 114.053 46.0697C114.049 51.652 111.392 58.2546 109.148 58.2546C108.633 58.2546 106.862 56.9061 105.214 55.2578ZM240.089 60.2226C241.206 59.1051 242.53 56.0676 243.03 53.4727C244.986 43.3155 248.917 35.1233 254.289 30.0046L258.224 26.2546H255.276C253.427 26.2546 251.066 27.3668 248.942 29.2386C247.08 30.8798 245.196 32.2298 244.755 32.2386C244.314 32.2473 243.482 30.9046 242.907 29.2546C242.332 27.6046 241.568 26.2171 241.209 26.1713C236.218 25.5336 236.557 24.62 236.557 38.7341C236.557 49.2303 236.228 52.3442 234.907 54.3602C233.38 56.6904 233.379 57.0779 234.888 59.5662C236.845 62.7903 237.445 62.8661 240.089 60.2226ZM93.8765 58.7462C96.3571 55.8933 96.605 54.2023 94.8068 52.4034C92.83 50.4259 93.2253 33.5765 95.3476 29.3502C97.4015 25.2601 97.3901 25.3819 95.6972 25.6303C93.6336 25.9332 91.2325 28.7051 90.4976 31.633C90.1359 33.0745 89.5387 34.2538 89.1705 34.2538C88.1095 34.2538 85.3235 30.6699 84.5913 28.3631C83.9772 26.4282 79.6029 24.3742 78.4825 25.4947C78.2179 25.7592 79.5211 29.1468 81.3786 33.0227C84.1404 38.7855 84.8833 41.7584 85.4554 49.3374C85.9814 56.3052 86.5772 58.9261 87.8559 59.8978C90.3209 61.771 91.4311 61.5587 93.8765 58.7462ZM174.225 57.0424C175.688 55.615 175.799 54.8126 174.891 52.2069C173.755 48.9485 174.458 38.7312 175.949 36.8197C176.407 36.2335 177.077 34.5163 177.438 33.0038C177.799 31.4913 178.536 30.2538 179.076 30.2538C179.615 30.2538 180.057 29.7409 180.057 29.1141C180.057 28.4872 180.844 27.3765 181.807 26.6459C183.361 25.4658 183.135 25.3139 179.785 25.2856C176.717 25.2599 175.802 25.7198 174.875 27.7538C174.248 29.1288 173.388 30.2538 172.964 30.2538C172.539 30.2538 171.906 31.1538 171.557 32.2538C170.507 35.5621 168.366 34.5248 166.406 29.7576C164.824 25.9119 164.143 25.2608 161.7 25.2576C159.386 25.2546 158.972 25.5868 159.521 27.0038C161.726 32.6911 163.057 40.7689 163.057 48.4639C163.057 53.2984 163.438 57.2538 163.904 57.2538C164.37 57.2538 165.787 58.1528 167.054 59.2515C169.489 61.3633 169.936 61.2256 174.225 57.0424ZM189.496 60.0997C194.861 57.6554 198.525 48.0354 197.823 38.2355C197.196 29.4629 195.928 27.2538 191.519 27.2538C188.813 27.2538 187.282 28.0707 184.54 30.9779C180.883 34.8551 179.37 38.641 178.438 46.2538C177.752 51.8467 179.694 56.7165 183.649 59.3234C187.101 61.5997 186.406 61.5074 189.496 60.0997ZM183.674 52.8663C182.142 46.7628 186.919 34.3121 191.23 33.1739C193.557 32.5592 194.067 32.8631 195.169 35.525C196.23 38.0871 196.158 39.6401 194.722 45.1163C192.725 52.7293 190.804 55.2538 187.01 55.2538C184.96 55.2538 184.123 54.6554 183.674 52.8663ZM192.057 48.6358C192.057 47.8108 191.607 47.4139 191.057 47.7538C190.507 48.0938 190.057 49.0469 190.057 49.8719C190.057 50.6969 190.507 51.0938 191.057 50.7538C191.607 50.4139 192.057 49.4608 192.057 48.6358ZM206.641 59.4444C208.3 58.0574 208.861 56.0733 209.391 49.7277C210.241 39.5348 212.669 32.7466 216.96 28.5681C219.925 25.6809 220.101 25.2538 218.327 25.2538C217.206 25.2538 214.598 27.1261 212.529 29.4166C208.42 33.964 208.549 33.9989 204.853 27.3287C202.81 23.641 199.489 23.0211 200.434 26.5038C200.77 27.7413 201.579 32.6939 202.232 37.5095C203.273 45.1944 203.207 46.9349 201.692 51.7408C199.162 59.7671 201.641 63.6255 206.641 59.4444ZM132.422 58.0038C133.293 56.6153 134.029 51.7339 134.346 45.2538C134.786 36.2706 135.248 34.0677 137.544 30.0038C140.112 25.4596 140.14 25.2538 138.21 25.2538C137.1 25.2538 135.927 26.0413 135.603 27.0038C135.279 27.9663 133.767 30.2539 132.243 32.0874L129.472 35.421L127.014 30.5874C124.928 26.484 124.066 25.7065 121.307 25.4405C117.713 25.0939 117.1 26.6074 119.232 30.5696C120.842 33.5623 122.028 39.4305 122.704 47.7538C123.166 53.4362 123.759 55.2715 125.852 57.5038C128.983 60.8424 130.566 60.9629 132.422 58.0038ZM292.057 12.5038L292.057 4.25384L273.807 4.13652C263.769 4.072 245.657 3.7345 233.557 3.38652C221.457 3.03854 211.276 3.13922 210.932 3.61023C210.588 4.08125 208.482 4.21133 206.251 3.89929C204.02 3.58725 193.276 3.40708 182.376 3.49892C171.475 3.59076 140.057 3.80575 112.557 3.97663C85.0568 4.14754 49.5068 4.39229 33.5568 4.52058L4.55676 4.75382L4.26535 12.4753L3.97399 20.1968L17.7656 20.4753C25.3509 20.6285 90.1696 20.7538 161.807 20.7538H292.057L292.057 12.5038Z" fill="white"/>
</g>
<defs>
<clipPath id="clip0_37_11080">
<rect width="296.057" height="984.678" fill="white"/>
</clipPath>
</defs>
</svg>
